<?xml version="1.0" encoding="UTF-8"?>
<svg id="svg118" xmlns="http://www.w3.org/2000/svg" version="1.1" xmlns:inkscape="http://www.inkscape.org/namespaces/inkscape" xmlns:sodipodi="http://sodipodi.sourceforge.net/DTD/sodipodi-0.dtd" xmlns:svg="http://www.w3.org/2000/svg" viewBox="0 0 850.39 850.39">
  <!-- Generator: Adobe Illustrator 29.5.1, SVG Export Plug-In . SVG Version: 2.1.0 Build 141)  -->
  <defs>
    <style>
      .st0, .st1, .st2, .st3, .st4 {
        fill-rule: evenodd;
      }

      .st0, .st5 {
        fill: #020202;
      }

      .st1 {
        stroke: #fff;
        stroke-width: 20px;
      }

      .st1, .st2 {
        fill: #fff;
      }

      .st3, .st4 {
        fill: #ffc700;
      }

      .st6 {
        isolation: isolate;
      }

      .st4 {
        stroke: #ffc700;
        stroke-width: .57px;
      }
    </style>
  </defs>
  <sodipodi:namedview id="namedview118" bordercolor="#000000" borderopacity="0.25" inkscape:current-layer="svg118" inkscape:cx="566.46894" inkscape:cy="566.92799" inkscape:deskcolor="#d1d1d1" inkscape:document-units="in" inkscape:pagecheckerboard="0" inkscape:pageopacity="0.0" inkscape:showpageshadow="2" inkscape:window-height="1494" inkscape:window-maximized="1" inkscape:window-width="2560" inkscape:window-x="-11" inkscape:window-y="-11" inkscape:zoom="1.0892036" pagecolor="#ffffff"/>
  <g id="Layer1000">
    <path id="path1" class="st4" d="M790.12,28.43H60.11c-27.59,356.9,109.28,687.82,365.01,793.7,255.73-105.88,392.59-436.81,365.01-793.7Z"/>
    <path id="path2" class="st1" d="M740.35,81.58H109.88c-4.33,129.59,13.81,263.13,60.83,383.33,44.14,112.83,116.17,218.44,221.13,281.24,10.82,6.47,21.93,12.45,33.28,17.89,11.36-5.44,22.47-11.42,33.29-17.89,104.96-62.8,176.99-168.41,221.12-281.24,47.02-120.2,65.15-253.74,60.82-383.33Z"/>
    <path id="path3" class="st4" d="M219.99,510.17V225.05h-28.08v206.41c7.64,26.44,16.83,52.43,27.66,77.74.14.32.28.65.42.97Z"/>
    <path id="path4" class="st4" d="M248.06,225.05v341.99c8.6,15.27,17.95,30.21,28.08,44.67V225.05h-28.08Z"/>
    <path id="path5" class="st4" d="M304.21,225.05v423.02c8.88,10.42,18.23,20.48,28.08,30.08V225.05h-28.08Z"/>
    <path id="path6" class="st4" d="M360.37,225.05v478.15c9.01,7.32,18.36,14.29,28.08,20.85V225.05h-28.08Z"/>
    <path id="path7" class="st3" d="M416.52,225.05v516.24c.71.4,1.43.79,2.14,1.18,2.14,1.17,4.29,2.32,6.45,3.45,2.16-1.13,4.31-2.28,6.45-3.45,4.41-2.41,8.75-4.9,13.03-7.47V225.05h-28.08Z"/>
    <path id="path8" class="st4" d="M472.67,225.05v491.37c9.73-7.07,19.09-14.55,28.08-22.4V225.05h-28.08Z"/>
    <path id="path9" class="st4" d="M528.83,225.05v442.09c9.88-10.35,19.24-21.16,28.08-32.34V225.05h-28.08Z"/>
    <path id="path10" class="st4" d="M584.98,225.05v370.47c10.23-15.83,19.58-32.15,28.08-48.76V225.05h-28.08Z"/>
    <path id="path11" class="st4" d="M641.13,225.05v258.12c11.59-30.68,20.89-62.2,28.08-94.21v-163.91h-28.08Z"/>
    <g id="text13" class="st6">
      <g class="st6">
        <path class="st5" d="M222.72,122.7h18.84l8.4,60.12h.24l8.4-60.12h18.84v84h-12.48v-63.6h-.24l-9.6,63.6h-11.04l-9.6-63.6h-.24v63.6h-11.52v-84Z"/>
        <path class="st5" d="M286.8,186.78v-64.08h13.2v65.04c0,6,2.52,8.16,6.72,8.16s6.72-2.16,6.72-8.16v-65.04h12.72v64.08c0,13.44-6.72,21.12-19.68,21.12s-19.68-7.68-19.68-21.12Z"/>
      </g>
      <g class="st6">
        <path class="st5" d="M355.92,207.78v3.6c5.28,0,8.28,1.44,8.28,5.64,0,6.48-5.04,7.32-12.24,7.32-6.6,0-11.52-1.44-11.52-6.96v-1.2h8.88v.96c0,1.8,1.32,2.4,2.64,2.4,2.16,0,3.12-.84,3.12-2.88,0-2.28-1.44-3.12-4.44-3.12h-.6v-5.76c-11.16-.96-16.8-8.52-16.8-21v-4.8h12.48v5.76c0,6,2.64,8.16,6.84,8.16s6.84-2.16,6.84-8.4c0-6.96-2.64-11.4-11.28-18.96-11.04-9.72-14.64-16.56-14.64-26.16,0-13.2,6.84-20.88,19.68-20.88s19.2,7.68,19.2,21.12v3.48h-12.48v-4.32c0-6-2.4-8.28-6.6-8.28s-6.6,2.28-6.6,8.04c0,6.12,2.76,10.56,11.4,18.12,11.04,9.72,14.52,16.44,14.52,26.88,0,12.48-5.76,20.04-16.68,21.24Z"/>
      </g>
      <g class="st6">
        <path class="st5" d="M397.08,186.78v-4.8h12.48v5.76c0,6,2.64,8.16,6.84,8.16s6.84-2.16,6.84-8.4c0-6.96-2.64-11.4-11.28-18.96-11.04-9.72-14.64-16.56-14.64-26.16,0-13.2,6.84-20.88,19.68-20.88s19.2,7.68,19.2,21.12v3.48h-12.48v-4.32c0-6-2.4-8.28-6.6-8.28s-6.6,2.28-6.6,8.04c0,6.12,2.76,10.56,11.4,18.12,11.04,9.72,14.52,16.44,14.52,26.88,0,13.68-6.96,21.36-19.92,21.36s-19.44-7.68-19.44-21.12Z"/>
        <path class="st5" d="M444,122.7h19.44c13.2,0,19.68,7.32,19.68,20.76v8.28c0,13.44-6.48,20.76-19.68,20.76h-6.24v34.2h-13.2v-84ZM463.44,160.5c4.2,0,6.48-1.92,6.48-7.92v-9.96c0-6-2.28-7.92-6.48-7.92h-6.24v25.8h6.24Z"/>
        <path class="st5" d="M489.36,186.78v-44.16c0-13.44,7.08-21.12,20.04-21.12s20.04,7.68,20.04,21.12v44.16c0,13.44-7.08,21.12-20.04,21.12s-20.04-7.68-20.04-21.12ZM516.24,187.62v-45.84c0-6-2.64-8.28-6.84-8.28s-6.84,2.28-6.84,8.28v45.84c0,6,2.64,8.28,6.84,8.28s6.84-2.28,6.84-8.28Z"/>
        <path class="st5" d="M538.32,122.7h19.56c13.68,0,19.56,6.36,19.56,19.32v5.16c0,8.64-2.76,14.16-8.64,16.56v.24c6.6,2.04,8.76,8.28,8.76,17.76v14.76c0,4.08.12,7.08,1.44,10.2h-13.44c-.72-2.16-1.2-3.48-1.2-10.32v-15.36c0-7.8-2.28-10.32-8.28-10.32h-4.56v36h-13.2v-84ZM556.32,158.7c4.92,0,7.92-2.16,7.92-8.88v-6.48c0-6-2.04-8.64-6.72-8.64h-6v24h4.8Z"/>
      </g>
    </g>
    <path id="path13" class="st0" d="M390.55,539.09c.7-4.12,4.18-20.52,6.93-24.21.91-1.22.33-.61,1.61-1.5,1.69,22.42,7.78,17.23,7.91,24.52-2.99-.19-4.91-.8-8.82-.61-3.31.16-4.75,1.34-7.63,1.81ZM366.82,488.3c.74-4.37,1.54-7.84,2.59-12.23l8.37-36.19c3.65,2.55,5.91,14.71,8.8,20.77.98,2.07.86,1.02,1.59,3.24.51,1.55.58,3.08.58,5.28-2.53-2.41-.04-2.9-3.97-2.99l-7.48,12.01c-2.63,3.8-5.98,8.56-10.49,10.1ZM242.08,285.72c.28,2.24-.15.06.52,1.39,2.06,4.11,5.78,7.72,10.12,9.53,10.93,4.55,24.65-1.78,44.29,12.17,11.53,8.19,3.26,12.37-5.29,17.37l-44.16,23.46c1.82,1,26.47,5.79,28.85,6.07,12.57,1.52,44.86.51,61.51.48,16.44-.03,38.23,6.3,45.05,6.59,3.26.14,5.05-.47,7.61.6.97,2.3-1.54,13.27-3.2,15.37-2.53,3.2-7.76,3.7-8.32,10.74-.19,2.41,1.3,5.27,2.04,7.25,1.49,3.99.77,3.85,0,7.92-3.42,18.36-8.87,36.13-12.6,54.57l-7.37,31.62c-.9,3.6-2.12,3.48-5.29,4.69-11.8,4.52-20.58,5.66-29.66,9.12-1.25.48-2.07.76-3.54,1.32l-3.33,1.48c-.6.28-.83.38-1.61.79-6.11,3.15-12.03,7.19-16.72,12.15-.08.09-.21.22-.29.31-.08.09-.21.22-.29.31l-13.3,21.5c-.83,2.07-1.95,4.68-2.52,7.04-.61,2.56-1.16,5.96,1.6,6.83,1.59,0,4.53-9.46,8.96-14.2l17.45-14.61c2.05-1.26,3.36-2.41,6.16-2.86l-3.1,3.04c-3.18,1.99-7.07,4.43-9.66,7.15-2.68,2.82-8.32,8.4-9.76,11.92,1.73-.21,2.93-1.15,4.37-1.78,31.25-13.73,52.6,6.94,69.57.18,6.21-2.48,9.32-4.97,16.74-4.97-1.57,3.85-3.33,1.75-9.89,8.23-6.79,6.71-9.13,13.27-19.19,17.15-14.17,5.46-18.98,14.61-25,27.2l-1.57,3.81c-.55,1.41-.88,2.1-1.31,3.46l-1.03,3.18c-1.38,4.54-1.1,5.56-4.26,9.68-1.03,1.34-2.62,4.21-3.48,4.97,3.25-.09.78.15,2.52-1.05l.78-.57c1.3-.8-.7.03,1.57-.77-.54,2.91-2.12,5.2-3.3,8-3.25,7.65-4.49,14.02-3.84,22.59.07.94-.13,3.48.13,4.07,1.51-.55.18.44.99-1.01,2.35-4.22,2-10.04,4.86-13.87l.75-.83c.1-.12.27-.29.42-.42,0,3.09-.02,6.19.02,9.28.06,4.68.54,4.91-2.45,6.87,4.23-.11,1.3.04,2.43.89,0,5.66-1.51,8.04-3.69,11.55-.63,1.02-.72,1.04-1.34,2.23-.48.92-.12.28-.58,1.22l-2.23,5.52c-.38.91-.28.83-.68,1.27,1.1-.63,2.01-3.53,2.73-4.96.27-.54.4-.78.64-1.19.47-.84.91-1.5,1.37-2.25l3.82-6.37c.11-.15.81-.91.96-1.04,1.33-1.11-.96.17,1.44-.92-.69,4.09-2.58,15.6-2.48,19.42.09,3.35,1.06,6.17,1.92,8.81.44,1.34.72,2.36,1.73,3.58l1.74,1.66c.98-.92.56-.2.77-3.24.49-6.91,2.06-13.46,4.64-19.52.61-1.43.84-1.86,1.43-3.32l2.42-3.2v5.38c1.73-3.78,3.35-7.51,4.95-11.71,1.08-2.85,3.22-10.72,3.55-14.27l.77-.25c2.06-1.05,2.1-4.63,3.14-9.17,3.82-16.6-2.35-34.9,4.17-50.95,1.14-2.81,1.59-5.36,4.72-6.27,0,32.43,25.85,33.75,18.87,56.03-1.7,5.44-6.11,9.88-5.51,15.93.26,2.64,1.75,3.81,3.3,5.52,4.08,4.5,6.93,11.47,10.89,16.82,4.77,6.45,6.25,7.16,10.16,14.58,1.99,3.78,6.36,6.63,9.12,9.47,1.56,1.61,1.76.99,4.51,1.28,2.67.29,8.73,1.3,11.31-.12-.49-.97-7.07-6.53-9.56-9.75-3.09-3.99-7.38-6.3-9.95-10.59-5.44-9.06-6.92-7.55-11.17-19.58-1.91-5.42-1.07-5.88,1.17-7.88,4.18,2.06,5.68,7.7,8.39,11.23,5.94,7.76,12.66,14.14,16.04,23.81,2.14,6.13,3.33,4.56,6.87,7.4,2.6,2.09.43.92,1.57,3.57,5.47,2.21,8.53.6,14.9.6-.18-1.45-.44-1.87-1.41-2.74-3.49-3.14-6.32-2.55-7.88-7.42-1.62-5.09-5.76-7.02-8.62-11.14-3.42-4.92-6.03-10.31-9.58-15.08-1.51-2.02-.97-.63-2.31-2.51-4.69-6.56,2.59-16.62,5.95-22.1l7.85-12.05c1.57-2.08,2.41-3.73,3.92-5.71.79-1.04,1.2-1.65,1.93-2.85,2.08-3.44,4.3-5.96,5.82-9.76,1.2-3,1.29-4.81,1.29-9.03,5.08,0,10.31-1.43,14.9-1.78,5.12-.39,9.13-1.47,13.75-2.55,5.75-1.34,9.16,1.65,14.15.19,2.45-.72,7-2.23,6.35-5.33-.41-1.95-.83.07-1.07-3.67,8.96-5.78,8.11-6.86,17.81-4.51,17.35,4.2,22.54,5.97,17.39,16.85l-1.91,4.1c-8.28,17.69-11.19,9.23-14.85,17.09-2.42,5.17,1.3,17.8,7.02,12.39l5.81-6.77c1.67-2.81,1.9-6.05,4.36-8.38,4.19-3.97,3.4-1.28,4.04-8.31.36-3.92,1.3-6.84,3.05-9.74.96-1.59,1.35-2.26,2.42-3.64,4.42-5.68,2.32-7.47,1.13-14.46,2.94,0,4.2.2,6.54.53,3.78.53,6.83,2.8,6.87,6.94.04,4.42-5.04,10.55-7.58,13.76-2.88,3.64-2.77,5.03-2.77,11.06-6.12,0-8.28-.27-10.37,5.79-1.25,3.64-2.74,9.06-.58,12.72,9.17,0,10.34-10.64,18.35-15.5,5.01-3.04,4.07-5.69,5.76-11.43,1.23-4.17,2.35-9.81,4.05-13.41,2.67-5.64,8.73-14.06-6.27-21.08-2.12-.99-3.7-1.72-5.87-2.58-1.12-.45-1.67-.69-2.98-1.27-5.13-2.24-9.15-5.83-13.67-8.81,1.07-6.39,10.33-16.47.21-33.15-6.31-10.39-11.15-15.54-14.16-29.24-1.08-4.92-4.19-20.63-1.86-26.07,2.41-2.36,21.63-.63,26.03.58,3.42.94,3.6,1.96,6.12,3.07,7.73,3.41,16.24-11.83,5.31-18.83-.43-.27-.75-.43-1.14-.64l-4.77-2.49c-8.17-4.42-12.86-10.94-21.09-15.76-13.23-7.76-7.79-5.39-7.42-17.89-1.2.59-1.88,1.52-2.86,2.53-1.49,1.56-1.69,2.23-3.84,2.85l-.07-4.79c-2.22,3.34-.27,10.41-7.41,3.17-3.05-3.1-1.23-2.48-2.55-5.55-3.81,1.2-2.18,5.97-2.12,8.96-2.62-.47-2.37-.85-4.65-1.93-.12-.06-.28-.13-.41-.19-2.19-1.02-5.69-2.28-8.33-1.18,3.13,1.79,3.52-.65,4.87,2.39-.16.11-.42.03-.52.26-.16.36-12.38,3.25-14.7,7.8,2.1-.06,1.99-.47,4.52-.65,0,0,2.38-.03,2.49-.01,3.34.56,1.24-.2,2.73,1.27-6.18,2.55-6.31-.46-11.55,6.54-4.03,5.38-6.89,4.32-12.79,3.62,1.17,2.43,7.17,2.97,10.95,2.97-.11.16-.3.18-.38.44-.41,1.46-.75.9-2.25,1.9-1.25.82-1.64,1.08-2.81,1.94-5.32,3.9-9.5,9.47-10.38,16.63,2.29-.28,2.49-2.81,7.3-3.59l-5.2,15.09c-1.24,3.06-1.2,2.42-2.71,4.64-8.18-3.22-7.83-12.59-11.99-15.68-2.63-1.96-4.82-.3-6.89-2.84l-.33-1.03c-2.07-9.44,1.4-10.5-.94-14.52l-2.38-4.79c3.58-2.35,3.51-3.24,1.92-7.39-4.42-11.57-16.78-8.83-16.51-18.89-3.17,2.39,2.09,4.42-7.15,13.89-4.37,4.48-5.14,9.17-3.58,15.32.58,2.29.1,4.12.7,6.51.63,2.5,2.46,2.51,1.51,4.91-.58.22-.25.41-1.44.18-1.98-.38-3.78-3.39-4.93-4.73-2.3-2.67-3.34-5.17-4.9-8.42-4.79-10.03-2.92-22.88-3.95-34.54-.58-6.61,1.91-7.84,3.78-12.05,2.56-5.79-2.84-5.05-1.87-11.18.62-3.91,2.49-8.28,3.29-12.38,2.13-10.9,5.39-21.32,7.3-32.26l10.33-44.87c1.2-4.59,2.52-13.7,4.64-17.64l.52-.77c1.32-1.62,2.79-1.62,3.04-4.53.39-4.49-.01-11.08-.01-15.8-1.45,2.87-8.7,13.05-8.28,16.15.67,4.98,2.71,2.88.51,8.92-2.01,5.52.07,4.84-16.52.76-22.82-5.61-22.75.85-40.55-.12l-29.04-2.03c-16.65-2.36-23.11-4.5-39.01,1.33l-21.45,9.41c-7.14,2.88-13.79,5.17-21.52,2.11-1.97-.78-1.09-.61-2.44-1.27Z"/>
    <g id="Layer1001">
      <path id="path14" class="st0" d="M466.87,770.26c1.25.31,7.26-.7,8.32-.9.49-.09,3.77-.84,4.11-1.08.44-.32,1.24-3.46,1.43-4.18,1.54-5.67,2.24-11.84,1.98-16.97-.07-1.46-.11-2.81-.25-4.21-.12-1.22-.33-2.82-.62-4.07-.16-.7-.25-1.32-.41-2.07-.78-3.44-.5-3.48-2.62-5.97-.55-.65-1.07-1.26-1.63-1.96-.87-1.09-.58-1.14-1.82-1.21-1.47-.08-2.76-.13-4.15-.13-2.19,0-6.51.1-8.35.56-.27,5.31-2.68,15.81-4.87,20.89,2.6,3.57,4.54,6.85,6.03,10.51.77,1.9,1.36,3.52,1.89,5.37.85,2.97.66,4.13.97,5.42ZM378.4,709.92l-2.16,2.69c-2.14,2.66-5.32,7.98-6.69,11.22-2.83,6.7-3.42,8.53-4.85,16.31-.29,1.58-.4,3.66-.54,5.26-.48,5.36.16,10.39,1.03,15.58.14.84.35,1.71.57,2.54l1.93,6.43c.79,2.39,2.66,6.44,3.95,8.71l3,4.87c2.96,4.39,6.55,8.37,10.6,11.84l3.05,2.45c3.5,2.64,7.28,4.91,11.23,6.74,3.21,1.48,7.51,3.03,10.91,3.83l5.41,1.06c.94.09,1.71.27,2.64.35,3.81.33,4.25.28,7.93.34l3.93-.18c1.82-.08,7.82-1.16,9.63-1.67l1.31-.35c.24-.08.28-.11.56-.19,3.85-1.07,9.23-3.21,12.62-5.21.85-.5,1.58-.88,2.44-1.42,2.78-1.73,4.81-3.18,7.32-5.28l4.72-4.39c.57-.61,1.14-1.24,1.7-1.89l2.97-3.69c2.64-3.53,5.01-7.4,6.7-11.14,1.33-2.93,2.18-5.28,3.09-8.23l2.02-9.46c.06-.48.06-.79.12-1.26.35-2.66.38-5.27.36-7.93-.01-1.8-.18-3.38-.37-5.16-.1-.93-.18-1.73-.29-2.66-.06-.54-.18-.78-.24-1.32-.13-1.2-1.07-5.07-1.44-6.29-.55-1.79-1.02-3.4-1.71-5.11-2.24-5.53-4.37-9.75-8.19-14.8-4.28-5.65-6.7-7.71-12.11-12.06-4.25-3.41-9.11-5.81-14.04-7.89-7.59-3.2-17.02-4.65-25.29-4.24l-2.58.18c-2.13.1-1.13.12-2.57.28-3.56.41-8.24,1.44-11.45,2.63-.84.31-1.59.51-2.5.89-1.68.7-3.34,1.31-4.96,2.15-5.21,2.68-10.31,5.91-14.6,10.02-2.61,2.5-3.65,3.64-5.13,5.46ZM418.06,768.97c.06.55,2.08,5.55,2.45,6.49l3.7,9.61c.78,2.02.63,2.36,1.67,2.73,6.78,2.42,13.44,2.52,20.21,2.48,1.14,0,2.21-.09,3.35-.18.67-.06.93-.47,1.52-1.1,2.8-3.01,4.78-5.32,7.4-8.64,1.9-2.41,3.74-4.9,5.39-7.34,1.21-1.78,1.72-1.85,1.6-3.59-.38-5.3-4.52-14.32-8.22-19.04-.5-.64-.83-.48-1.47-.5l-21.67-1.03c-1.04,1.51-2.11,3.68-3.16,5.35-2.85,4.56-6.42,9.3-10.45,12.87-.77.69-1.63,1.25-2.32,1.89ZM424.99,789.04c-3.09,3.32-8.84,6.95-12.99,8.18-3.33.99-2.81-.04-3.74,1.79l-2.33,4.3.39.16c7.5,2.73,16.41,3.6,24.1,2.92,3.89-.35,7.77-1.08,11.87-2.37,2.68-.84,9.38-3.43,11.56-5.14-1.73-2.44-3.81-6.9-4.12-7.28-.93-.07-2.04.09-3.1.14-6.27.27-15.95-.25-21.64-2.69ZM407.25,797.59c-.97-.64-3.05-1.5-4.27-2.16-3.92-2.14-9.53-5.94-12.66-8.96-2.06-1.99-1.99-2.78-3.3-3.16-1.42-.41-2.75-.95-4.12-1.58-3.23-1.48-5.5-3.21-8.49-5.37,3.58,6.2,6.49,10.43,12.13,15.46,6.08,5.43,10.72,7.89,17.9,10.99.56-.75,2.68-4.48,2.81-5.22ZM461.13,703.97c-3.64-2.94-7.84-5.49-11.85-7.33-.99-.46-5.04-2.3-5.82-2.2l-5.36,1.64c1.73,2.16,3.15,5.39,3.98,7.64.49,1.34,2.02,6.29,2.06,7.75,1.44,1.05,3.32,2.01,4.92,3.15,4.71,3.35,9.88,7.46,13.46,11.81l3.34-.28c2.21-.08,4.15-.26,6.52-.21l3.26.09c.09-.48.02-.97.04-1.52.11-2.89.7-2.02-.6-4.27-1.08-1.88-2.23-3.66-3.57-5.49-2.95-4.01-6.32-7.51-10.38-10.79ZM400.23,721.42c-5.09,5.84-9.87,10.98-14.1,17.55-.18.27-.6.87-.71,1.13-.34.81.71,5.88,1.05,7.1.71,2.62,1.62,5.09,2.78,7.88,1.06,2.55,2.57,5.35,4.11,7.83,1.06,1.71.6,1.36,3.69,2.12,1.48.36,2.76.58,4.24.9,3.44.73,8.96,1.33,12.6,1.69,3.11.31,2.75.5,4-.47,5.34-4.12,10.01-10.83,13.43-16.75.36-.62,1.03-1.65,1.28-2.25.29-.68-.19-1.33-.41-1.98l-4.03-11.88c-.89-2.58-1.91-5.32-2.98-7.96-.3-.74-1.19-.85-1.95-1.13-5.9-2.17-12.86-3.91-19.01-4-2.4-.04-2.2.14-3.99.21ZM383.71,740.9c-1.79-.44-3.52-.63-5.5-1.26-2.15-.69-3.94-1.45-5.78-3.18-1.31,2.26-2.35,4.48-3.27,6.77-.44,1.09-.85,2.2-1.21,3.31-.55,1.67-.56,3.81-.42,5.53.5,6.04,1.25,10.09,3.22,16.01.32.97.72,2.08,1.14,3.05.68,1.57.7,1.54,2.21,2.88,2.04,1.8,4.31,3.5,6.65,4.84,3.74,2.15,4.08,1.79,6.59,2.99l.69-4.28c.57-2.77,1.51-5.72,2.6-8.37.88-2.12,1.16-2.33,1.86-3.77.23-.48.16-.15.15-.51-.05-.28-2.87-5.08-3.27-5.89-1.93-3.91-3.61-7.91-4.6-12.01-.27-1.12-.47-2.01-.62-3.1l-.45-3ZM442.53,711.56c-.02-.81-.52-2.62-.76-3.58-.87-3.37-2.38-7.17-4.4-10.21-1.19-1.79-1.17-1.63-3.12-2.2-3.26-.95-7.7-1.88-10.92-2.19-1.28-.12-2.49-.26-3.69-.29-1.12-.03-2.46-.14-3.57-.03-.76.07-1.01-.06-1.8.25-7.07,2.86-13.15,6.58-18.15,13.11l1.88,6.7c.6,1.93,1.33,4.78,2.34,6.64,2.28-.1,3.53-.33,6.12-.07,5.07.5,7.6,1.03,12.58,2.44l6.28,2.04c3.88-4.35,7.86-7.74,12.82-10.45l4.38-2.17ZM367.9,741.93c.47-.64,1.55-3.33,2.09-4.38.41-.79.81-1.48,1.27-2.26.68-1.15.04-5.97,1.66-10.7-1.08,1.52-2.78,6.89-3.31,8.77-1.17,4.18-1.05,4.72-1.72,8.58ZM410.41,693.2c-1.12.16-2.65.75-3.82,1.12-9.11,2.94-19.97,10.05-25.73,17.69l.3-.14s.23-.15.28-.18c3.53-2.47,6.37-4.26,10.65-5.6,3.17-.99,2.39-.12,3.75-1.86,2.04-2.6,4.63-4.88,7.16-6.66,1.25-.88,2.44-1.63,3.69-2.36,1.09-.64,2.86-1.39,3.72-2.01Z"/>
      <path id="path15" class="st2" d="M400.23,721.42c1.79-.07,1.59-.24,3.99-.21,6.14.09,13.1,1.84,19.01,4,.76.28,1.65.39,1.95,1.13,1.07,2.64,2.09,5.38,2.98,7.96l4.03,11.88c.21.65.7,1.29.41,1.98-.25.6-.92,1.63-1.28,2.25-3.42,5.92-8.09,12.63-13.43,16.75-1.25.96-.89.78-4,.47-3.64-.37-9.16-.96-12.6-1.69-1.48-.31-2.76-.53-4.24-.9-3.09-.76-2.63-.4-3.69-2.12-1.53-2.48-3.04-5.28-4.11-7.83-1.16-2.79-2.07-5.26-2.78-7.88-.33-1.23-1.39-6.29-1.05-7.1.11-.26.53-.86.71-1.13,4.23-6.57,9.01-11.72,14.1-17.55Z"/>
      <path id="path16" class="st2" d="M418.06,768.97c.69-.65,1.54-1.21,2.32-1.89,4.03-3.57,7.6-8.31,10.45-12.87,1.05-1.68,2.11-3.84,3.16-5.35l21.67,1.03c.64.02.96-.14,1.47.5,3.7,4.72,7.85,13.74,8.22,19.04.12,1.73-.39,1.8-1.6,3.59-1.66,2.44-3.49,4.93-5.39,7.34-2.61,3.32-4.6,5.63-7.4,8.64-.58.63-.84,1.05-1.52,1.1-1.13.09-2.21.18-3.35.18-6.76.04-13.43-.06-20.21-2.48-1.04-.37-.89-.71-1.67-2.73l-3.7-9.61c-.37-.94-2.38-5.94-2.45-6.49Z"/>
      <path id="path17" class="st2" d="M442.53,711.56l-4.38,2.17c-4.96,2.71-8.94,6.1-12.82,10.45l-6.28-2.04c-4.99-1.41-7.51-1.94-12.58-2.44-2.59-.26-3.84-.03-6.12.07-1-1.86-1.74-4.71-2.34-6.64l-1.88-6.7c5-6.53,11.08-10.25,18.15-13.11.79-.32,1.04-.18,1.8-.25,1.1-.11,2.45,0,3.57.03,1.2.03,2.4.16,3.69.29,3.22.31,7.66,1.24,10.92,2.19,1.95.57,1.93.41,3.12,2.2,2.02,3.04,3.53,6.84,4.4,10.21.25.95.75,2.77.76,3.58Z"/>
      <path id="path18" class="st2" d="M466.87,770.26c-.3-1.28-.12-2.45-.97-5.42-.53-1.85-1.12-3.48-1.89-5.37-1.48-3.66-3.42-6.95-6.03-10.51,2.19-5.07,4.6-15.58,4.87-20.89,1.84-.46,6.16-.55,8.35-.56,1.4,0,2.69.05,4.15.13,1.24.06.95.12,1.82,1.21.56.7,1.07,1.31,1.63,1.96,2.12,2.48,1.84,2.52,2.62,5.97.17.75.25,1.37.41,2.07.29,1.25.5,2.85.62,4.07.14,1.4.18,2.75.25,4.21.25,5.13-.44,11.3-1.98,16.97-.19.72-.99,3.87-1.43,4.18-.34.24-3.62.99-4.11,1.08-1.06.2-7.06,1.2-8.32.9Z"/>
      <path id="path19" class="st2" d="M383.71,740.9l.45,3c.14,1.1.35,1.99.62,3.1.99,4.1,2.67,8.1,4.6,12.01.4.81,3.22,5.61,3.27,5.89,0,.35.08.03-.15.51-.7,1.44-.98,1.65-1.86,3.77-1.1,2.64-2.03,5.6-2.6,8.37l-.69,4.28c-2.51-1.2-2.85-.84-6.59-2.99-2.34-1.34-4.61-3.04-6.65-4.84-1.51-1.33-1.53-1.31-2.21-2.88-.42-.97-.82-2.08-1.14-3.05-1.97-5.92-2.72-9.97-3.22-16.01-.14-1.73-.13-3.87.42-5.53.36-1.11.77-2.21,1.21-3.31.92-2.29,1.96-4.5,3.27-6.77,1.85,1.73,3.63,2.49,5.78,3.18,1.98.64,3.71.83,5.5,1.26Z"/>
      <path id="path20" class="st2" d="M461.13,703.97c4.06,3.28,7.43,6.78,10.38,10.79,1.34,1.82,2.49,3.61,3.57,5.49,1.3,2.25.72,1.38.6,4.27-.02.55.05,1.04-.04,1.52l-3.26-.09c-2.37-.06-4.31.13-6.52.21l-3.34.28c-3.58-4.35-8.76-8.46-13.46-11.81-1.6-1.14-3.48-2.1-4.92-3.15-.04-1.46-1.57-6.42-2.06-7.75-.83-2.25-2.25-5.48-3.98-7.64l5.36-1.64c.77-.11,4.82,1.74,5.82,2.2,4.01,1.84,8.21,4.39,11.85,7.33Z"/>
      <path id="path21" class="st2" d="M424.99,789.04c5.7,2.44,15.38,2.96,21.64,2.69,1.06-.05,2.17-.2,3.1-.14.31.38,2.39,4.83,4.12,7.28-2.18,1.72-8.88,4.3-11.56,5.14-4.1,1.29-7.98,2.03-11.87,2.37-7.68.68-16.6-.18-24.1-2.92l-.39-.16,2.33-4.3c.93-1.84.41-.8,3.74-1.79,4.14-1.23,9.9-4.86,12.99-8.18Z"/>
      <path id="path22" class="st2" d="M407.25,797.59c-.13.73-2.25,4.47-2.81,5.22-7.18-3.09-11.81-5.56-17.9-10.99-5.63-5.03-8.55-9.26-12.13-15.46,2.98,2.16,5.26,3.89,8.49,5.37,1.38.63,2.7,1.17,4.12,1.58,1.32.38,1.24,1.17,3.3,3.16,3.13,3.02,8.74,6.82,12.66,8.96,1.22.66,3.3,1.53,4.27,2.16Z"/>
      <path id="path23" class="st2" d="M410.41,693.2c-.86.62-2.64,1.37-3.72,2.01-1.24.73-2.44,1.48-3.69,2.36-2.52,1.78-5.12,4.06-7.16,6.66-1.36,1.74-.58.87-3.75,1.86-4.28,1.34-7.12,3.13-10.65,5.6-.05.04-.23.16-.28.18l-.3.14c5.76-7.64,16.63-14.75,25.73-17.69,1.17-.38,2.7-.96,3.82-1.12Z"/>
      <path id="path24" class="st2" d="M367.9,741.93c.67-3.85.55-4.39,1.72-8.58.52-1.87,2.23-7.25,3.31-8.77-1.63,4.74-.99,9.55-1.66,10.7-.46.78-.86,1.47-1.27,2.26-.55,1.05-1.62,3.73-2.09,4.38Z"/>
    </g>
    <g id="Layer1002">
      <path id="path25" class="st2" d="M340.77,303.37c-.42.71-.08.38-.78,1.4-.28.41-.48,1.01-.67,1.51-.34.9-1.23,2.24-1.14,3.28.88-.11,1.32-.77,1.86-1.12,0,.47-.19.9-.22,1.39-.11,1.61.43,2.74,1.07,4.16.39-.32.08-1.51,1.74-2.71.51-.37.75-.39,1.42-.39,4.77,0,2.77,8.61,2.08,11.75-.12.56-.17.48.05.96.7,1.54,1.98,3.42,4.25,2.93.69-.15,1.25-.5,1.63-.82.24-.2.85-1.02,1.06-1.38.46-.77.48-.99.27-1.96-.14-.68-.28-1.33-.44-2-.54-2.4-1.38-8.59,1.93-9.41,1.49-.37,2.71.71,3.31,1.76.26.46.29.88.48,1.27.41-.32.86-1.76,1.02-2.4.4-1.51-.07-1.76-.08-3.06.31.26,1.24,1.2,1.86,1.15.1-1.04-.89-2.55-1.35-3.87-.25-.71-.2-.65-.59-1.17-.2-.27-.47-.98-.59-1.09-.25-.23-1.29-.11-2.76-.8-.43-.2-.69-.52-1.1-.67-.45.6-.47,1.27-1.93,2.11-2.53,1.47-7.34,1.01-8.54-2.2-1.26.6-1.82,1.31-3.86,1.38Z"/>
      <path id="path26" class="st2" d="M316.54,343.4c.68.4,1.69.31,2.41-.5.4-.45.81-1.31,1.08-2.03.56-1.46.97-3.35,1.19-5.01.49-3.67,1.12-7.27,1.55-10.92.41-3.55,1.14-7.2,1.83-10.64.35-1.77.77-3.39,1.2-5.09l1.52-4.65c-.66-.29-.74-.19-.95-.92-.29.14-.17.2-.41.46-.47.5-.46.02-.89,1.38-.25.79-.44,1.62-.7,2.41-.57,1.77-1.83,8.3-2.09,10.29-.28,2.2-2.03,10.6-2.73,12.78-.23.71-.81,1.68-.89,2.23-.14.89-.26,1.81-.38,2.71l-1.4,6.29c-.12.42-.29.75-.34,1.2Z"/>
      <path id="path27" class="st2" d="M379.94,331.11c-.24-.8-.46-1.62-.66-2.44-.42-1.65-.72-3.37-1.04-5.08-.65-3.45-1.23-7-1.85-10.45-.59-3.27-.94-4.45-1.84-7.47-.46-1.54-.36-.85-.86-1.41-.15-.17-.17-.27-.32-.42-.2.19-.18.34-.41.57-.25.26-.31.16-.59.32.12.71,1.1,3.28,1.47,4.8.2.85.46,1.65.64,2.47.19.86.34,1.71.56,2.54.59,2.24,1.37,8.13,1.74,10.65.52,3.63.93,7.32,1.56,10.9.37,2.11.8,5.47,2.24,7.08.66.75,1.61.82,2.32.46-.02-.56-.47-1.85-.62-2.45-.21-.83-.36-1.71-.55-2.55-.34-1.51-.73-4.48-.93-5.27-.19-.71-.59-1.47-.83-2.27Z"/>
      <path id="path28" class="st2" d="M342.04,291.38c1.13-.37,1.49,1.35.6,1.73-1.12.48-1.69-1.37-.6-1.73ZM347.53,291.55c-.68-.16-1.32-1.68.71-1.44,0,.61-.32,1.26-.71,1.44ZM342.42,294.39l-1.47-.38.18,1.47c.4.21.97.06,1.48,1.15.24.52.49,1.47.78,1.82.42.51,1.53.28,1.91-.16.45-.52.48-1.3.58-2.1.71,2.28-.73,2.56-.97,2.81.54.48.56.25.71,1.11,1.23.49,1.88,2.29,4.03,2.37.11-1.98.13-5.19-.53-6.89-.18-.46-.35-.88-.55-1.3-.29-.6-.28-.72-.85-1-.83-.41-1.61-1.03-1.62-2.16.39.42.79,1.26,1.36,1.46.97-.08,1.45-1.92,1.41-3.04-1.35-.77-2.53.61-3.36.54-.71-.06-.94-.34-1.88-.3-.99.04-1,.4-1.54.66-.57.28-2.76-.32-1.96,1.95.65,1.86,1.84,1.09,2.3,1.99Z"/>
      <path id="path29" class="st2" d="M357.18,291.47c.51-.21.9.14,1.05.51.46,1.14-1.22,1.84-1.58.71-.09-.29-.1-.56.04-.83.05-.09.08-.14.19-.23.24-.2.06-.06.3-.16ZM351.55,290.16c.63,0,1.04.03,1.42.39-.02.53-.42.85-.68,1.06-.34-.2-.81-.82-.74-1.46ZM350.87,289.57c-.02,1.24.45,2.58,1.25,3.09.53.11,1.52-1.53,1.56-1.64.1,1.07-.63,1.72-1.52,2.16-.5.25-.59.54-.87.98-.3.47-.46.61-.69,1.25-.68,1.91-.62,4.9-.48,7.03,1.03.16,2.29-1.04,3.01-1.63l.94-.68c.31-.64.12-.65.74-1.09-.85-.58-1.35-.67-1.08-2.7.28.39.07,1.18.63,1.93.3.4,1.55.7,1.95.24.16-.18.6-1.43.76-1.77.32-.67.67-.95,1.47-1.15l.27-1.57-1.5.44c.52-.89,1.54-.12,2.33-1.97.23-.53.17-1.31-.2-1.63-.47-.42-1.35-.09-1.83-.38-.56-.33-.46-.63-1.5-.64-.97-.01-1.25.28-1.9.34-.8.08-.97-1.11-3.36-.63Z"/>
      <path id="path30" class="st2" d="M340.29,330.3c.29-1.29,1.6-3.14,2.17-4.31.32-.66.87-1.49.81-2.37-.07-.96-.88-1.38-1.95-1.25-.54,1.41-.96,2.73-1.63,4.08-.36.73-.63,1.14-.99,1.87-.25.51-.79,1.49-1.48,1.17-.29-.15-.95-2.13-2.65-2.85.1.34.31.45.31.91,0,.36-.12.69-.32.88-.67.65-1.56-.36-1.56-.36-.24,1.15.62,1.99,1.45,2.3,1.75.65,2.54-.2,3.02.02-.5.48-2.02.58-2.85.4-.98-.21-1.21-1.13-1.82-1.47-.43.67-.67,1.07-1.78,1.07-.18.78,0,1.16.72,1.29,1.1.2,1.47-.2,1.78-.28.45-.11,1.44.14,2.02.11.67-.03,1.4-.38,1.77-.37-.78.99-3.05.51-3.48.51-.42,0-.55.22-1.06.28.14,1,.17.53-.09,1.42-.17.56.26.79.77.85,1.6.19,1.33-.46,2-1.27,1.02.26,1.38.17,1.88-.52.37.23.83.81,1.4.14,1.2.42.79.15,1.22-.3.72.33.25.05.67.65.64.92,1.96.84,2.23-.51-.08-.1-.03-.04-.13-.13-.18-.17-.46-.29-.28-1.09.12-.54.43-.64.01-1.16-.76-.93-1.58.18-2.18.3Z"/>
      <path id="path31" class="st2" d="M367.4,330.24c-.51-.28-.39-.33-.58-.6-.11-.16-.03-.09-.18-.19-.36.46-.99,1.3-1.79,1.48-.79.17-2.45.1-2.77-.47.41-.16,1.6.71,3.05-.01.93-.46,1.43-.86,1.44-2.17-.4.09-.97.93-1.64.21-.48-.52-.13-1.26.06-1.74-2.74,1.1-2.16,4.99-4.24,1.5-1.23-2.07-1.67-3.62-2.46-5.84-3.74-.21-1.03,3.92-.04,5.79.32.61.85,1.5,1.05,2.17-.72-.08-1.38-1.34-2.3-.24-.43.52.05.64.12,1.17.11.89-.16.71-.45,1.15.14.62.72,1.31,1.54,1.03.99-.34.48-1.01,1.42-1.16.39.64.38.58,1.11.29.83.57.7.37,1.45-.06.3.23.36.47.82.58.47.11.77,0,1.13-.1.79,2.26,2.97,1.2,2.74.48-.12-.37-.22-.12-.2-.65,0-.25.07-.5.08-.76-1.53-.69-4.07.2-4.47-.91.69.13.87.4,1.77.42.54,0,1.63-.26,1.99-.13.29.11.32.25.78.32,1.91.3,1.96-.88,1.73-1.2-.25-.18-.78-.19-1.13-.39Z"/>
      <path id="path32" class="st2" d="M341.35,321.93c1.26.18,1.54-.15,2.06.97.37.8.13,1.66-.18,2.35,1.19.1,1.79-1.02,2.12-1.95.92-2.63,2.01-8.3.76-10.65-.51-.95-1.39-1.51-2.86-1.01-1.04.35-1.4,1.37-1.81,2.4-.35.86-.12,2.87-.08,3.9.06,1.37.09,2.63,0,4Z"/>
      <path id="path33" class="st2" d="M356.35,325.35c-.25-.79-.65-1.49-.19-2.44.42-.87,1-.9,2.15-.82-.15-1.41-.16-2.41-.1-3.85.04-.92.23-3.19.02-3.95-.29-1.05-.91-2.11-1.72-2.49-.53-.25-1.25-.31-1.82-.11-2.51.87-1.69,6.26-1.32,8.29.37,2.02.88,5.35,2.99,5.37Z"/>
      <path id="path34" class="st2" d="M367.17,302c-.15.68.18,1.42.48,1.86.52.76.96.53,1.74.37-.36.76-.85.71-1.4.63.31,1.37.68,2.63.93,4.08.24,1.43.45,2.87.65,4.3.39,2.81-.32,5.28,3.22,6.76.22-3.01-.75-6.54-1.31-9.3-.4-1.94-.91-3.5-1.33-5.3-.28-1.21-1.09-1.01-1.13-2.95.31.3.26.86.83,1.49.73.8.93.23,1.5-.08l-.37-1.81c.35.68.56,1.82,1.24,2.01.48.13.98-.24,1.02-.5.03-.2-.24-.91-.21-1.4-.35.01-.7.15-1.09.07-.38-.08-.44-.34-.78-.5-.12.12-.4.63-1.09.51-.21-.04-.36-.15-.49-.28-.21-.22-.19-.3-.49-.39-.28.46-.09.35-.04.88l-.19-.5c-.18.16-.38.38-.76.4-.6.03-.47-.27-.93-.33Z"/>
      <path id="path35" class="st2" d="M347.95,329.37c.61-.13.63-.37,1.09.18.35-.15.82-.7,1.26,0,.02-.01.05-.06.06-.04.02.03.2-.26.5-.29.36-.04.42.13.7.25.27-.58,1.06-1,1.47.53l.95,5.07c.04.76-.41,1.17-1.09,1.15-.48-.02-.26-.07-.59-.25-.47.86-.57,1.29-1.62.51-.44.27-.3.66-1.02.62-.64-.03-.59-.42-.94-.7-1.11,1.17-1.38-.07-1.7-.51-.36.14-.64.42-1.17.15-.99-.52-.25-2.42.03-3.52.21-.84.42-1.7.55-2.56.06-.41.21-.83.53-.98.55-.27.75.13,1,.39ZM345.79,324.24c-.12.89-.39,2.23-.15,3.06.39,1.38.66,1.21.25,2.8-.38,1.46-.47,2.64-1.21,3.91-.21.36-.52.75-.63,1.12.3.15.44.08.68.33.2.2.26.47.4.7.74.34.58-.12,1.04.7,1.14.04.58-.16,1.19.5.74-.13.8-.03,1.19.36.79-.28.72-.02,1.21.23.36-.33.6-.45,1.17-.22l.21-.23c.29-.27.56-.2.98-.13.45-.52.21-.71,1.21-.45.14-.6.25-.71.91-.72.25-.12.16-.34.43-.65.29-.34.4-.23.73-.42-.4-.87-.76-1.15-1.09-2.31-.26-.9-.48-1.86-.67-2.76-.36-1.71,0-1.4.27-2.86.17-.92-.04-2.18-.12-3.14-.22.32-.23.97-.87,1.69-.78.87-1.64,1.46-3.02,1.46-1.22,0-2-.28-2.68-.88-.87-.77-1.26-1.89-1.44-2.08Z"/>
      <path id="path36" class="st2" d="M370.29,304.98c.09.78.43,1.67.65,2.41.67,2.22,1.32,4.99,1.78,7.27.41,2.06.4,3.44.48,5.54.02.58,1.45,3.17,2.86,3.38-.08-3.28-2.95-18.41-4.65-19.56-.39.46-.42.85-1.13.97Z"/>
      <path id="path37" class="st2" d="M323.45,323.36c.74-.11,1.4-.78,1.77-1.28,1.82-2.48.96-2.09,1.28-4.84.29-2.46.85-5.34,1.56-7.65l1.35-4.82c-.74-.01-.76-.46-1.12-.92-.85.34-1.5,3.05-1.79,4.21-.41,1.62-.85,3.24-1.23,4.88-.94,4.06-1.22,6.33-1.81,10.43Z"/>
      <path id="path38" class="st2" d="M372.7,294.96c.18.37-.22,1.26-.37,1.57-.34.7-.39.85.08,1.41.43.51.83.64,1.33.15.5-.49.47-.77.84-1.29,0,.52-.36,1.3-.68,1.7-.17.2-.26.2-.41.42.16.52.44,1.44.94,1.56.85.2,1.19-.6,1.6-.89-.05.73-.77,1.18-1.35,1.42l-.3.18c.44.2.82.76,1.24.87.88.23,1.08-.21,1.69-.38-.17.39-.3.61-.65.85-.52.36-.77.08-1.27.09.25.35.49.74.75,1.1,1.46,2.05,1.3,2.75,3.88,2.75.83,0,1.35-.24,1.68-.72-.23-.22-1.38-.29-2.57-1.54-1.73-1.84-3.42-6.36-4.28-7.24-.66-.67-.2-.48-1.5-1.7-1.05-.99-1.94-1.72-3.62-1.65-.47.02-.56.09-.47.57.83,4.39,3.08,2.98,3.46.78Z"/>
      <path id="path39" class="st2" d="M326.88,319.74c.91-.22,2.29-1.54,2.59-2.34.39-1.04.47-3.16.57-4.37.11-1.45.44-2.86.69-4.25.25-1.44.73-2.71.95-4.07-1.19.15-.87-.32-1.49-.56-.59.46-.55.73-.78,1.59-.16.62-.34,1.22-.5,1.85-.32,1.28-.67,2.48-.96,3.8-.41,1.81-1.39,6.57-1.07,8.35Z"/>
      <path id="path40" class="st2" d="M315.72,333.4v.15c1.95.55,3.04-1.62,3.53-3.05.6-1.74.86-3.56,1.34-5.36.47-1.74.74-3.77,1.12-5.57.24-1.14,1.04-4.69.94-5.69-.61,1.61-1.04,3.29-1.56,4.99-.71,2.34-3.36,10.19-4.32,12.29-.24.52-.8,1.85-1.06,2.24Z"/>
      <path id="path41" class="st2" d="M383.76,333.78v-.23c-.56-.77-1.54-3.48-1.96-4.59-.62-1.62-1.18-3.12-1.69-4.85-.48-1.64-1.06-3.33-1.6-4.94-.37-1.1-1.07-4.31-1.54-4.99-.02.91.72,4.54.94,5.74.34,1.86.67,3.73,1.09,5.54.5,2.16,1.1,6.04,2.44,7.54.4.45,1.42,1.08,2.33.79Z"/>
      <path id="path42" class="st2" d="M375.59,303.64c-.13.77-.48.77-1.03,1.1.09.91,1.73,6,2.12,7.27.83,2.74.81,2.7,2.38,4.68.29.37.75.92,1.37,1.05-.03-.79-.76-2.87-1.05-3.63-.41-1.08-.82-2.51-1.13-3.65-.53-1.96-1.08-4.74-2.28-6.53-.2-.29-.1-.24-.39-.3Z"/>
      <path id="path43" class="st2" d="M319.19,317.45c.9-.19,1.85-1.58,2.38-2.29.92-1.23.91-2.04,1.37-3.33.28-.79,2.1-6.77,2.12-7.26-1.18-.86-.58-.72-1.1-1.09-1.52,1.72-1.91,4.66-2.57,6.75-.36,1.16-.77,2.36-1.17,3.52-.33.94-.93,2.69-1.04,3.69Z"/>
      <path id="path44" class="st2" d="M334.37,302.18c-.95,1.07-1.22.26-1.69.15-.03,1.12-.64,1.97-.92,3.03-.76,2.85-1.65,7.35-1.66,10.17,1.77-.11,1.81-1.57,1.81-2.62,0-3.72,1.72-7.04,1.83-8.08-.82-.01-1.2-.17-1.41-.79.56.13.93.61,1.57-.01.25-.24.74-.9.84-1.3l-.03.79c.72.37,1.24.6,1.78-.04.32-.38.75-1.19.87-1.72l-.7-.63c-.16.19-.24.73-.85,1.28-.57.51-1.09.02-1.44-.24Z"/>
      <path id="path45" class="st2" d="M318.02,305.49c.29.57,1.12.75,1.87.75,1.56,0,2.11-.47,2.75-1.39.31-.44.54-.81.85-1.25.27-.38.62-.85.82-1.29-1.06.42-1.57-.05-1.89-.86.58.2.81.59,1.63.35.45-.13,1.04-.57,1.19-.92-.24-.13-1.41-.46-1.61-1.56.31.29,1.51,1.91,2.33.1.62-1.37-.73-.79-.85-2.85-.52.37-1.21,1.84-1.56,2.48-.43.78-.88,1.89-1.4,2.56-.95,1.23-1.05,2.29-2.74,3.24-.4.23-1.08.41-1.4.63Z"/>
      <path id="path46" class="st2" d="M367.33,304.26c-.26.55-.61.92-1.42.75.14.86.58,1.81.87,2.62.31.87.5,1.97.69,2.9.48,2.36-.37,4.92,2.01,5.15,0-2.64-.87-7.56-1.56-10.27-.07-.28-.95-2.93-1.01-3.01-.96.98-1.02.11-1.7,0-.24.29-.34.32-.15.81.62,1.55,1.44,1.22,2.27,1.05Z"/>
      <path id="path47" class="st2" d="M331.04,299.91c-.09.31-.19.58-.28.89-.16.51-.55,1.15-1.1,1.28-.51.12-.61-.07-.89-.23-.14.45-.43,1.34-.44,1.81,1.3,1.3,1.88-.45,2.29-1.42.23.51-.23,1.2-.3,1.75,1.19.75,1.79-.25,2.12-1.2.19-.56.24-.52.02-.95-.34.14-.52.45-1.06.3-.28-.08-.69-.49-.75-.7,1.32,0,1.1.73,2.2-1.02.12-.18.12-.18.23-.3-.04.55-.41,1.05-.55,1.6,1.12,1.16,2.23-.46,2.4-1.57-1.35.68-1.28.31-2.07-1.18-.73.44-.44,1.11-1.81.92Z"/>
      <path id="path48" class="st2" d="M349.65,304.33c1.59,0,2.22-.2,3.54-1.03.67-.42,1.89-1.28,1.31-2.38-1.24-.28-1.95,2.23-4.76,2.23-2.16,0-3.63-2.39-4.26-2.42-.62-.03-1,1.3,1.22,2.66.79.48,1.82.94,2.96.94Z"/>
      <path id="path49" class="st2" d="M338.17,340.45c.82-.67,2.08-1.28,3.14-1.91,1.05-.62,2.1-1.93,2.73-2.28-.22.62-2.61,2.79-3.23,3.29-.83.67-2.74,2.57-2.64.9ZM344.33,335.63c-.64-.04-.84.28-1.18.55-2.5,2.02-4.38,2.55-5.23,3.22-.73.57-.49,1.98.12,2.37.88.56,1.81-.28,2.29-.67.63-.51,1.22-1.08,1.76-1.61.67-.67,1.85-1.9,2.37-2.68.41-.63.19-.72-.13-1.17Z"/>
      <path id="path50" class="st2" d="M361.25,341.26c-.95.18-1.67-.88-2.51-1.51-.85-.64-2.83-2.53-3.27-3.45.37.25,1.82,1.69,2.95,2.52,1.82,1.33,3.1,1.27,2.84,2.44ZM359.86,341.65c.97.66,1.61.43,2.03-.51.51-1.14-.5-1.74-1.13-2.13-1.4-.88-2.67-1.2-4.18-2.58-.17-.16-.74-.71-.93-.77-.46-.15-.86.38-.8.81.07.51,1.75,2.28,2.29,2.83.9.92,1.61,1.6,2.71,2.35Z"/>
      <path id="path51" class="st2" d="M376.8,329.41c-.03-.91-.25-1.7-.32-2.58-.29-3.58-.05-2.2-1.41-2.95-1.15-.63-1.52-2.17-1.84-2.51-.12,1.6.24,3.65.72,5.02.38,1.09,1.72,2.84,2.85,3.02Z"/>
      <path id="path52" class="st2" d="M323.37,324.03l-.66,5.22c1.16-.28,2.32-1.8,2.84-2.92.61-1.31.8-3.51.81-5.1-.38.36-.44,1.06-1.11,1.8-.36.4-1.03.99-1.89.99Z"/>
      <path id="path53" class="st2" d="M340.29,343.34c-.15-.54.32-.83,1.05-1.59.85-.88,1.97-1.87,2.69-2.87.36-.5.76-1.4,1.2-1.66-.29,1.04-2.59,4.06-3.4,5.09-.58.74-.91,1.3-1.54,1.03ZM345.23,336.59c-.3.19-1.41,1.48-1.68,1.82-.65.81-1.29,1.32-1.66,1.79-.55.69-1.11,1.01-1.79,1.66-.3.29-.62.49-.62,1.12,0,1.1.96,2.31,2.7.25,1.31-1.56,1.73-2.41,2.73-4.17.35-.61,1.03-1.66.71-2.37l-.38-.11Z"/>
      <path id="path54" class="st2" d="M363.72,304.55c.19.91,1.19,2.76,1.66,4.47.21.76.17,1.86.51,2.5.28.52.94,1.35,1.54,1.51,0-1.78-.4-3.34-.83-4.96-.22-.82-1.14-3.87-1.54-4.3-.37.44-.49.78-1.34.78Z"/>
      <path id="path55" class="st2" d="M332.22,312.87c.63-.15,1.31-.93,1.55-1.52.32-.76.27-1.7.5-2.51.4-1.49,1.28-2.9,1.67-4.35-.9-.13-.56-.18-1.34-.8-.36.35-1.29,3.46-1.53,4.22-.47,1.47-.84,3.31-.84,4.96Z"/>
      <path id="path56" class="st2" d="M380.66,318.14c-1.69-.14-2.08-1.79-2.94-2.63.17,1.2.82,2.54,1.15,3.72.39,1.39,1.14,4.61,3.14,4.09.62-.16.34-.46-.08-1.59-.44-1.21-.86-2.33-1.28-3.59Z"/>
      <path id="path57" class="st2" d="M354.32,337.35l.38.42c1.75,2.64,1.67,2.18,3.42,4.15.35.39,1.39,1.15.93,1.61-.35.35-.71-.18-.85-.36-.97-1.23-3.56-4.7-3.89-5.83ZM353.76,337.39c.34,1.4,2.87,5.25,4.07,6.5,1.41,1.49,2.91-.64,1.85-1.65-.76-.73-2.1-1.76-2.74-2.57l-2.43-2.88c-.41-.35-.89.02-.75.6Z"/>
      <path id="path58" class="st2" d="M318.96,317.92l-1.78,5.04c2.05.49,2.72-1.08,3.25-2.91.31-1.09,1.47-4.01,1.5-4.84-.7.59-1.1,2.52-2.97,2.71Z"/>
      <path id="path59" class="st2" d="M345.95,345.77c-.35.14-.41.14-.69-.07-.16-.56.91-3.08,1.14-3.75.21-.6.38-1.24.57-1.86.11-.37.56-1.66.58-1.83.09.91-.84,4.39-1.17,5.59-.18.67-.28,1.31-.43,1.91ZM347.78,337.62c-.7.32-1.66,3.57-1.99,4.41-.41,1.05-1.92,3.94-.69,4.67,1.73,1.04,2.19-2.55,2.41-3.75.16-.91.3-1.82.43-2.75.13-.89.49-2.32-.15-2.59Z"/>
      <path id="path60" class="st2" d="M346.38,337.83c-.23,1.23-.97,2.84-1.46,3.93-.21.48-1.54,3.69-2.13,3.11-.43-.42.5-1.48.72-1.82,1.08-1.66,1.09-1.59,2-3.46.2-.41.53-1.59.86-1.77ZM346.78,337.21c-.55-.09-.7.24-.94.69-.21.39-.35.78-.56,1.2-.35.74-2.27,3.47-2.77,4.29-.41.66-1.14,1.61-.3,2.39,1.64,1.5,2.75-2.23,3.11-3.38.28-.88.64-1.71.95-2.58.27-.74.86-1.9.51-2.62Z"/>
      <path id="path61" class="st2" d="M351.96,338.4c.26.36.9,3.11,1.16,3.85.22.63.44,1.25.63,1.88.32,1.04.72,1.58-.01,1.8-.66-.46-1.82-6.84-1.78-7.54ZM351.99,337.7c-.77-.04-.72.34-.65,1.02.05.47.13.93.21,1.4.31,1.83.7,7.79,2.67,6.68,1.34-.75.13-2.95-.47-4.51-.35-.91-1.44-4.04-1.77-4.59Z"/>
      <path id="path62" class="st2" d="M354.98,341.68c.39.61.72,1.15,1.11,1.75.29.45,1.14,1.4.29,1.7-.94-.48-3.46-6.84-3.17-7.37.05.09.93,2.58,1.78,3.92ZM352.66,337.33c-.27.9,2.01,6.81,2.59,7.85.76,1.37,1.75,1,2.13.46.6-.85-.13-1.79-.55-2.44-1.05-1.62-1.75-2.4-2.71-4.27-.46-.9-.67-2.03-1.46-1.61Z"/>
      <path id="path63" class="st2" d="M350.57,338.58c.16,1.34.18,2.76.33,4.11.08.71.76,3.43.21,3.72-.72.39-.62-.98-.6-1.43.05-1.32-.24-5.76.06-6.4ZM350.59,347.32h.96l.43-.38c.56-.78-.61-5.2-.81-6.79-.05-.42-.11-2.22-.67-2.23-.75.23-.58,1.22-.58,2.06v5.34c0,1.4-.09,1.19.67,2Z"/>
      <path id="path64" class="st2" d="M348.46,346.54c-.74-.19-.4-.93-.29-1.66.28-1.8.55-5,.77-6.04.16,1.05.05,2.92.05,4.06,0,.98.22,3.16-.53,3.64ZM347.85,347.32h1.07c.64-.74.6-.8.6-2v-5.18c0-.81.17-1.91-.39-2.23-.73.12-.75,1.4-.86,2.13-.28,2-.52,3.11-.88,5.05-.29,1.57-.18,1.57.45,2.22Z"/>
      <path id="path65" class="st2" d="M335.87,310.41c.27-2.68,1.16-3.5,1.97-5.58-1-.54-.12.25-1.16-.92-.93.47-2.11,5.18-2.26,6.1-.08.52-.2.84.43.82.41-.01.74-.25,1.02-.41Z"/>
      <path id="path66" class="st2" d="M361.81,304.91c.18.48.54,1.1.77,1.59.53,1.16,1.02,2.22,1.16,3.54.05.48.1.53.45.73.36.21.66.27,1.09.13.14-1.56-1.41-5.9-2.18-6.81-.72.35.27.23-1.22.8-.01,0-.04.01-.06.03Z"/>
      <path id="path67" class="st2" d="M367.17,302c0-.49-.6-.81-.58-1.94.29.49.45.97.83,1.36.45.45,1.17.49,1.62,0,.02-.4-.23-.94-.33-1.35-1.34.16-1.1-.36-1.79-.91-.19.21-.52,1.44-1.27,1.48-1.03.05-1.33-1.07-1.47-1.27-.21.25-.33.55-.47.81-.15.28-.48.62-.4.94.11.48,1.08,1.53,1.73.94.18-.28-.34-1.26-.37-1.69.82,1.11.61,2.41,2.51,1.63Z"/>
      <path id="path68" class="st2" d="M336.23,310.32c1.34.28,1.54-.82,2.02-2.24.34-1,1.05-2.02,1.27-3l-.12-.05c-.62-.18-.21.06-.98-.52-.46.38-1.15,1.88-1.43,2.58-.45,1.14-.88,1.76-.76,3.23Z"/>
      <path id="path69" class="st2" d="M369.38,299.2c-.52.66-.94.97.17,2.03.5.48.6.58,1.48.42l-.4-1.51c.16.06.23.56.83,1.14.41.4.74.55,1.44.38l-.2-1.25c.66.72.4,1.68,1.82,1.51-.08-.38-.99-1.83-1.24-2.21l-.34.27c-.13.11-.25.21-.34.3-.63-.36-.59.12-1.16-.84l-.31-.39c-.21.22-.3.51-.75.53-.65.04-.54-.26-1.02-.4Z"/>
      <path id="path70" class="st2" d="M360.18,305.24c.27,1.14.87,1.96,1.26,2.95.46,1.17.39,2.57,1.94,2.26.29-1.18-1.46-5.38-2.08-5.82-.45.19-.24.25-.81.47l-.31.14Z"/>
      <path id="path71" class="st2" d="M326.95,294.72c.39.6.93,2.95,2.2,2.08.52-.36,1.59-2.49,1.32-3.2-.49-.29-1.57-.13-2.12.08-.41.16-1.32.64-1.41,1.03Z"/>
      <path id="path72" class="st2" d="M327.14,300.09l-.43,1.35c1.38.48,1.48-.31,2.42-1.61.02.78-.45,1.08-.46,1.62,1.05.17,1.39-.11,1.8-.77.43-.68.54-1.11-.21-1.67-.31.18-.41.47-.94.41-.6-.06-.4-.39-.85-.53-.62.58-.24.92-1.33,1.19Z"/>
      <path id="path73" class="st2" d="M326.95,294.72c-.6.08-1.57,1.31-1.86,1.76.11.37,1.09,2.65,2.15,1.38.76-.92.31-1.08.16-1.4-.17-.36-.47-1.31-.45-1.73Z"/>
      <path id="path74" class="st2" d="M329.78,296.8c.64.51,1.04.58,1.75-.33.29-.37.78-1.42.79-1.99l-1.53-.86c-.17,1.13-.95,2.44-1,3.18Z"/>
      <path id="path75" class="st2" d="M367.36,294.62c.1.61.49,1.48.81,1.96.49.73.98,1.03,1.8.4,0-.34-.43-1.11-.58-1.51-.15-.42-.31-1.37-.43-1.64l-1.6.79Z"/>
      <path id="path76" class="st2" d="M329.08,331.41c.19-.29.32-2.13,1.82-1.65.58.18.71.37,1.27-.1.2-.17.71-.63.31-1.04-.55-.57-2.19-.45-2.82.08-.69.59-.89,1.59-.59,2.71Z"/>
      <path id="path77" class="st2" d="M370.37,331.59c.32-.44.39-1.84-.45-2.66-1.06-1.05-4.18-.29-2.59.87.81.59,1.2.12,1.39.08.57-.13,1.04.23,1.26.49.31.38.27.69.39,1.21Z"/>
      <path id="path78" class="st2" d="M365.57,296.74c-.27.23-.81,1.42-1.03,1.83-.43.79.76,1.54,1.11,1.53.27,0,1.51-.66,1.05-1.55-.19-.36-.4-.56-.59-.85-.21-.33-.34-.71-.53-.96Z"/>
      <path id="path79" class="st2" d="M334.18,296.69c-.21.16-.16.11-.3.41-.54,1.12-.55.74-.86,1.32-.34.65.57,1.56,1.07,1.53.24-.01,1.52-.63,1.17-1.43-.15-.35-.32-.59-.51-.92-.08-.14-.14-.26-.24-.43-.04-.07-.08-.14-.12-.21-.01-.02-.02-.04-.03-.05-.01-.02-.02-.04-.04-.05-.07-.1-.08-.12-.12-.16Z"/>
      <path id="path80" class="st2" d="M331.2,328.06c.32-.22.49-.54.94-.62,1.56-.27,1.07,1.32,2.15.8.74-.36.36-2.64-1.83-1.96-.81.25-1.4.75-1.27,1.78Z"/>
      <path id="path81" class="st2" d="M368.35,328.29c.02-2.41-2.96-2.5-3.4-1-.2.7.39,1.85,1.29.68.26-.34.56-.5,1.18-.37.45.09.47.44.93.69Z"/>
      <path id="path82" class="st2" d="M343.58,334.07c.76-.08,1.1-.45,1.3-1.11.76-2.49-2.33-3.22-2.2-1.51.06.79.79.67,1.22.68.72.97.08,1.17-.32,1.93Z"/>
      <path id="path83" class="st2" d="M355.87,334.06c-.16-.33-1.01-1.26-.33-1.75.55-.4,1.55.16,1.28-1.1-.25-1.12-2.3-.81-2.3,1.25,0,.94.44,1.52,1.35,1.6Z"/>
      <path id="path84" class="st2" d="M368.07,333.67c.5.76-.21,1.52-.39,2.09,1.24-.1,1.53-.95,1.37-2.21-.16-1.3-.73-1.48-2.1-1.3-.49,1.5.6.64,1.11,1.42Z"/>
      <path id="path85" class="st2" d="M349.76,330.35c.09.82.26,5.13-.11,5.58-.41-.3-.11-1.73-.05-2.66.02-.4.19-2.82.16-2.92ZM349.94,336.49c.38-.98.15-4.64.1-6.12-.01-.4.01-.54-.34-.69-.31.84-.31,2.67-.44,3.71-.07.6-.14,1.32-.18,1.91-.05.83,0,1.31.86,1.18Z"/>
      <path id="path86" class="st2" d="M331.64,297.16c.84.93,1.63.39,2.12-.43.42-.7-.29-1.18-.74-1.63-.27-.27-.14-.22-.49-.43-.2.37-.24.84-.39,1.22-.16.41-.46.84-.5,1.26Z"/>
      <path id="path87" class="st2" d="M332.48,333.07s.03-.04.04-.05l.11-.17c.05-.11.04-.09.05-.22.02-.25,0-.25-.06-.49-1.24-.15-2.19-.15-2.19,1.74,0,1,.3,1.71,1.43,1.73-.27-.55-.56-.68-.56-1.48,0-1.18.47-.85,1.19-1.06Z"/>
      <path id="path88" class="st2" d="M351.27,335.59c-.09-.1-.07.02-.15-.22l.04-3.24c.08,1.16.54,3.12.11,3.46ZM351.64,336.16c.35-.78.02-2.39-.13-3.35-.08-.54-.15-1.08-.21-1.64-.05-.45.02-1.35-.38-1.54-.35.48-.12,4.37-.09,5.51.02.73.07,1.18.81,1.02Z"/>
      <path id="path89" class="st2" d="M368.08,297.29c-.1-.4-.33-.76-.48-1.15-.12-.31-.28-1.09-.41-1.3-.22.14-.73.65-.92.84-.3.3-.67.6-.32,1.16.52.82,1.36,1.5,2.12.46Z"/>
      <path id="path90" class="st2" d="M348.04,335.73c-.35-.34,0-1.84.06-2.44.08-.69.08-2.13.27-2.66.06.89.01,1.78,0,2.67,0,.32-.03,1.87-.15,2.19-.13.37-.03.14-.18.24ZM347.75,336.31h.56c.45-.86.36-4.61.37-6.02,0-.47,0-.56-.21-.77-.02.01-.04.01-.05.04-.02.09-.13-.11-.24.6l-.33,2.7c-.17.94-.59,2.76-.09,3.45Z"/>
      <path id="path91" class="st2" d="M346.33,335.37c-.25-.44.23-2.06.35-2.66.17-.89.29-1.83.48-2.67.03.65-.28,3.35-.41,4.24-.08.58-.09.96-.42,1.08ZM347.4,329.19c-.26.1-.16-.01-.31.26l-.31,1.28c-.12.59-.22,1.17-.36,1.73-.15.62-.87,2.96-.38,3.39,1.01.87,1.06-2.22,1.12-2.82.09-.86.45-3.19.24-3.84Z"/>
      <path id="path92" class="st2" d="M352.21,330.35c.15.33.86,4.52.8,4.9-.36-.1-.31-.05-.4-1.03-.04-.43-.09-.83-.14-1.26-.1-.8-.26-1.84-.26-2.61ZM352.03,329.29c-.27.76.1,2.73.2,3.65.06.62.09,3.42.99,2.85.52-.33-.17-2.79-.31-3.35l-.51-2.51c-.08-.39-.07-.55-.36-.64Z"/>
      <path id="path93" class="st2" d="M364.85,302.75c-.69-.05-.81.02-1.18-.42-.24-.28-.45-.64-.53-1.07-.18.11-.39.28-.52.42-.53.58.53,2.63,1.81,2.28.7-.19.53-.59.42-1.22Z"/>
      <path id="path94" class="st2" d="M359.66,293.4c2.06,0,2.04.85,2.28,2.12,1.01-1.04-.04-3.34-1.68-3.47-.09.2-.13.44-.24.65-.17.33-.23.28-.36.7Z"/>
      <path id="path95" class="st2" d="M337.8,295.44c.09-.86.12-1.15.59-1.68.43-.49.89-.53,1.74-.45-.19-.59-.5-.59-.57-1.38-.86.11-1.47.68-1.81,1.2-.39.58-.4,1.89.06,2.31Z"/>
      <path id="path96" class="st2" d="M324.78,302.06l-.7,1.18c.24.58,1.18,1.05,1.73.47.23-.25.75-1.2.77-1.59l-.06-.32c-.72.49-.47.77-1.74.25Z"/>
      <path id="path97" class="st2" d="M326.73,301.94l-.32,1.34c-.04.35.56.76,1.02.63.58-.16,1.19-1.47,1.16-2.36-.49.17-.43.38-.82.51-.56.19-.7-.02-1.04-.11Z"/>
      <path id="path98" class="st2" d="M375.59,303.64c.07-.29-.54-1.08-.8-1.36-.95.72-1.15-.1-1.69-.28.03.64.42,1.41.73,1.8.66.82,1.23.17,1.77-.16Z"/>
      <path id="path99" class="st2" d="M334.57,302c.5.07.78.1,1.14-.17.13-.1.62-.58.69-.75.14-.34-.72-1.54-.92-1.81-.3.42-.81,2.1-.92,2.73Z"/>
      <path id="path100" class="st2" d="M330.44,298.91c.29.2.4.47.93.47.62,0,1.17-.57,1.27-1.06-.95-.45-.6-.21-1.12-1.05-.56.2-.89,1.05-1.09,1.64Z"/>
      <path id="path101" class="st2" d="M367.01,298.48c.19.35.52.81.89.96.78.33,1.09-.13,1.36-.46-.23-.57-.6-1.34-1.06-1.56-.47.6-.16.63-.95.95l-.12.05s-.04.02-.05.03c-.01,0-.04.02-.05.03Z"/>
      <path id="path102" class="st2" d="M336.75,303.93c.47.16.9.45,1.41.05.32-.25.61-.58.74-.98-.37-.25-.98-.77-1.42-.96l-.74,1.89Z"/>
      <path id="path103" class="st2" d="M360.79,303.03c.16.83,1.12,1.65,2.11.95l-.68-1.85c-.52.23-.93.66-1.44.89Z"/>
      <path id="path104" class="st2" d="M328.66,298.57c.34.26.51.56,1.15.21.36-.19.63-.5.74-.97-.59-.4-.11.12-.83-.7-.08-.09-.06-.08-.12-.12-.5.39-.84.74-.93,1.58Z"/>
      <path id="path105" class="st2" d="M369.23,297.98c.06.39.4.79.64.94.56.37.89.06,1.2-.19-.22-.78-.31-1.17-.92-1.51-.2.12-.75.57-.92.76Z"/>
      <path id="path106" class="st2" d="M359.04,295.11c.35-.22.72-.67,1.43-.49.79.19.85.86,1.13.99.21-1.7-2.46-3.16-2.57-.49Z"/>
      <path id="path107" class="st2" d="M326.51,298.79c.16,1.34,1.72.54,2.09-1.06l-.68-.47c-.52.7-.48,1.51-1.41,1.52Z"/>
      <path id="path108" class="st2" d="M338.15,295.34c.26-.12.08,0,.28-.2.19-.18.36-.54.8-.62.83-.15.97.24,1.43.44.04-2.08-2.33-1.73-2.51.37Z"/>
      <path id="path109" class="st2" d="M371.14,297.8c.05.53.43,1.12.72,1.43.47.51,1.14.53,1.33-.16-.77-.56-.67-.15-1.26-1.33,0-.02-.02-.04-.03-.06,0-.02-.02-.04-.03-.06-.1-.18-.05-.09-.11-.16l-.63.33Z"/>
      <path id="path110" class="st2" d="M325.18,301.72c.72.32,1.13-.36,1.4-.76.63-.92.33-.96-.14-1.55-.16.18-.36.81-.62,1.14-.23.3-.69.69-.64,1.18Z"/>
      <path id="path111" class="st2" d="M357.08,298.12c1.18-.15,1.52-.75,1.56-1.96-.96-.15-1.58,1.02-1.56,1.96Z"/>
      <path id="path112" class="st2" d="M342.6,297.98c-.02-.52-.17-.95-.42-1.34-.28-.45-.47-.65-1.16-.65.02,1.14.44,1.92,1.58,1.99Z"/>
      <path id="path113" class="st2" d="M355.42,287.8h-.07c-.28.27-.71.83-.67,1.48h1.59c-.03-.63-.6-1.15-.85-1.48Z"/>
      <path id="path114" class="st2" d="M344.49,287.8h-.22c-.33.45-.59.56-.78,1.37l1.63.08c-.09-.61-.31-1.14-.62-1.45Z"/>
      <path id="path115" class="st2" d="M338.68,304.33c.84.33,1.55-.35,1.68-.93l-1.16-.3c-.17.3-.58,1.02-.52,1.23Z"/>
      <path id="path116" class="st2" d="M359.27,303.48c.22.67.81,1.2,1.75.9l-.5-1.16-1.25.26Z"/>
      <path id="path117" class="st2" d="M342.19,292.04c.28-.24.51.23.26.45-.2.17-.6-.16-.26-.45ZM342.09,291.7c-.8.36-.33,1.35.4,1.17.66-.16.49-1.57-.4-1.17Z"/>
      <path id="path118" class="st2" d="M357.27,292.59c-.13-.26-.16-.27.04-.54.26-.02.43.03.4.32-.04.35-.24.29-.44.22ZM357.86,292.92c.17-.37.36-1.22-.38-1.21-.48,0-.73.33-.59.83.14.47.51.47.97.39Z"/>
    </g>
  </g>
</svg>