<?xml version="1.0" encoding="UTF-8" standalone="no"?>
<svg
   version="1.1"
   width="595.27557pt"
   height="841.88977pt"
   id="svg36"
   viewBox="0 0 595.27557 841.88977"
   sodipodi:docname="amedspor-sk-seeklogo.cdr"
   xmlns:inkscape="http://www.inkscape.org/namespaces/inkscape"
   xmlns:sodipodi="http://sodipodi.sourceforge.net/DTD/sodipodi-0.dtd"
   xmlns="http://www.w3.org/2000/svg"
   xmlns:svg="http://www.w3.org/2000/svg">
  <defs
     id="defs36" />
  <sodipodi:namedview
     id="namedview36"
     pagecolor="#ffffff"
     bordercolor="#000000"
     borderopacity="0.25"
     inkscape:showpageshadow="2"
     inkscape:pageopacity="0.0"
     inkscape:pagecheckerboard="0"
     inkscape:deskcolor="#d1d1d1"
     inkscape:document-units="pt" />
  <g
     id="Layer1000">
    <path
       d="m 404.7228,220.2197 14.451,-30.6128 9.5528,4.6417 -5.3275,10.7782 5.4278,2.3216 16.5855,-5.8709 15.8865,6.687 -25.8554,7.3462 12.1264,24.6479 -15.1427,-6.5492 -7.8608,-18.3291 -4.6675,-2.4684 -5.5023,11.7139 z"
       style="fill:#ffffff;fill-rule:evenodd"
       id="path1" />
    <path
       d="m 363.5297,197.2454 9.7279,2.8743 -0.0876,0.3314 c -0.8387,3.1737 2.405,4.1865 4.8,4.8699 l 9.8583,2.8148 c 3.8863,1.1095 4.5606,1.5976 5.5332,-2.069 0.6083,-2.2929 -2.3601,-3.198 -4.015,-3.6861 l -13.098,-3.8622 c -7.9586,-2.3468 -11.3312,-3.8957 -9.2506,-11.7301 l 0.54,-2.0333 c 2.5336,-9.5397 9.8889,-7.0395 18.1222,-4.8739 l 9.191,2.4177 c 4.3486,1.1435 7.4877,2.7003 9.43,4.6321 1.9489,1.9383 2.2136,4.8586 1.5483,7.3655 l -0.5978,2.2519 -10.1424,-2.6927 0.0941,-0.3537 c 0.2625,-0.9868 0.1361,-1.7569 -0.371,-2.2998 -0.5134,-0.5493 -2.6311,-1.2534 -4.2097,-1.7305 l -8.7265,-2.6365 c -1.6311,-0.493 -4.1814,-1.0871 -4.9127,1.3861 -0.7231,2.4458 0.7815,2.9047 4.0597,4.0762 l 12.098,3.4745 c 9.423,2.7059 12.2278,5.5477 10.3652,11.6869 l -1.1282,3.7182 c -2.0534,6.7686 -7.8389,6.8789 -15.9973,4.5349 l -9.8396,-2.827 c -9.9686,-2.8641 -14.9596,-3.6119 -13.3356,-13.5366 z"
       style="fill:#ffffff;fill-rule:evenodd"
       id="path2" />
    <path
       d="m 300.7202,203.1559 2.4177,-33.4471 22.9067,1.6659 c 6.3465,0.4612 14.4295,1.2918 16.8058,3.5116 2.3706,2.2141 3.2122,6.2986 2.8672,11.3108 l -0.4739,6.8811 c -0.345,5.0125 -1.0366,7.846 -3.4773,9.9873 -3.1062,2.7252 -11.4188,2.2102 -17.7647,1.7561 z m 10.7337,-7.914 16.3593,1.0576 c 2.7586,0.178 4.5932,0.1582 5.5074,-0.5281 0.9105,-0.6831 1.5591,-1.1682 1.7498,-4.0683 l 0.3671,-5.5825 c 0.1908,-2.9004 -0.1797,-3.9099 -1.002,-4.7228 -0.8263,-0.8167 -2.6357,-1.0832 -5.372,-1.2651 L 312.446,179.028 Z"
       style="fill:#ffffff;fill-rule:evenodd"
       id="path3" />
    <path
       d="m 258.7689,206.041 -2.8622,-33.7436 36.7472,-2.6526 0.5236,7.683 -26.4722,2.2218 0.3608,5.0916 25.1224,-2.0044 0.5485,6.8627 -24.9279,2.1943 0.5142,5.3316 26.841,-2.3385 0.6318,8.3571 z"
       style="fill:#ffffff;fill-rule:evenodd"
       id="path4" />
    <path
       d="m 226.6914,178.4316 18.2741,-4.8733 8.3554,32.9408 -9.9983,2.3627 -5.8023,-24.1092 -1.5222,0.447 -5.4632,26.824 -8.7794,2.4344 -18.0284,-21.3994 -1.5528,0.4689 6.5211,23.7127 -10.0057,2.8372 -8.4254,-32.0035 18.1216,-4.9909 14.938,18.6485 z"
       style="fill:#ffffff;fill-rule:evenodd"
       id="path5" />
    <path
       d="m 150.3207,245.2051 0.4887,-38.2405 14.7438,-7.4866 30.8506,21.5748 -11.6796,6.074 -4.8784,-3.7939 -18.5151,9.5508 0.0358,6.7215 z m 10.6509,-20.4285 12.6343,-6.7076 -10.9344,-8.2689 -1.6531,0.8365 z"
       style="fill:#ffffff;fill-rule:evenodd"
       id="path6" />
    <path
       d="M 297.7169,89.28 C 227.3927,142.4412 135.0544,191.9673 43.8554,193.6117 31.1644,234.6761 28.326,273.2732 28.3201,310.3316 28.2883,508.5652 159.6328,619.0903 297.7149,685.0522 435.797,619.0903 566.765,508.6029 566.7327,310.3693 566.7267,273.3103 563.6259,235.3697 550.9349,194.3053 459.7359,192.6609 368.041,142.4412 297.7169,89.28 Z"
       style="fill:none"
       id="path7" />
    <path
       d="M 297.7115,672.1625 272.622,657.7299 c 2.5818,-22.1964 5.7184,-44.5036 9.3,-66.9002 -5.9126,20.0764 -11.8251,40.7858 -17.7376,62.6627 l -23.3248,-13.9875 26.4841,-75.3753 c 3.0676,-8.7301 5.3384,-17.9875 5.5771,-26.6989 0.1446,-5.2705 -1.5208,-10.0066 -5.5499,-14.1001 -11.1014,-11.2794 -27.7073,-21.6927 -45.0012,-25.3505 -9.8662,-2.0866 -18.4612,-3.9019 -24.8065,-6.9744 l 29.156,-38.0254 -31.8753,36.7515 c -17.0957,-9.1553 -31.7565,-20.7459 -45.4507,-33.3023 21.3608,-13.0447 42.0559,-25.9568 60.4128,-38.4012 -22.0385,11.1748 -44.1425,21.7001 -66.2819,31.8745 -12.5025,-13.6321 -22.5114,-30.7574 -31.0133,-49.9899 l 92.2127,-19.5536 c -32.4624,0.9275 -64.925,0.9473 -97.3879,0.3739 -5.1265,-17.6664 -6.249,-37.1313 -4.5754,-57.9986 32.5116,8.3044 65.6393,15.7448 99.1502,22.6494 -32.872,-15.2481 -64.9038,-31.2525 -95.7759,-48.3004 3.9413,-19.8224 9.9335,-39.8157 18.6744,-60.0378 12.4872,20.0996 61.8817,49.8053 104.9627,78.9747 11.6515,7.8891 20.2677,21.0413 20.7011,33.7498 0.2421,7.0951 -1.8695,12.7092 -4.2747,18.3745 -1.8223,4.2928 -2.4729,8.7335 -2.4754,13.3498 -0.008,14.669 6.9066,26.708 18.2253,36.8248 4.1196,3.6825 8.1692,4.6506 11.8497,4.4992 3.763,-0.1545 5.9913,-1.4392 8.0251,-3.9002 0.5018,-0.6075 0.7155,-1.4332 0.4502,-2.4749 -2.9656,-11.6422 -9.6744,-18.1837 -22.3878,-16.3137 1.6866,-4.5799 6.4732,-6.8868 13.0221,-6.3284 -2.8474,-4.4033 -7.0007,-6.4958 -11.4477,-6.6092 -2.9568,-0.0754 -5.7796,1.0224 -8.2125,3.3749 -0.1327,-4.0422 0.7115,-7.2742 3.7882,-10.8754 0.6673,-0.7812 1.3898,-1.1406 2.1798,-1.1389 l 6.7825,0.0144 2.7751,-1.3501 2.3241,-3.1873 c 1.0327,-1.4159 1.8465,-3.0124 4.0879,-3.3378 l 17.8764,-2.5988 0.011,4.0802 c 1.8043,1.0457 3.3724,1.9409 4.644,3.3222 1.2717,-1.3813 2.7774,-2.2765 4.5817,-3.3222 l 0.011,-4.0802 17.8764,2.5988 c 2.2414,0.3254 3.0552,1.9219 4.0879,3.3378 l 2.3241,3.1873 2.7751,1.3501 6.7825,-0.0144 c 0.79,-0.002 1.5125,0.3577 2.1798,1.1389 3.0767,3.6012 3.9209,6.8332 3.7882,10.8754 -2.4329,-2.3525 -5.2557,-3.4503 -8.2125,-3.3749 -4.447,0.1134 -8.6003,2.2059 -11.4477,6.6092 6.5489,-0.5584 11.3355,1.7485 13.0221,6.3284 -12.7134,-1.87 -19.4222,4.6715 -22.3878,16.3137 -0.2653,1.0417 -0.0516,1.8674 0.4502,2.4749 2.0338,2.461 4.2621,3.7457 8.0251,3.9002 3.6805,0.1514 7.7301,-0.8167 11.8497,-4.4992 11.3187,-10.1168 18.2336,-22.1558 18.2253,-36.8248 -0.002,-4.6163 -0.6531,-9.057 -2.4754,-13.3498 -2.4052,-5.6653 -4.5168,-11.2794 -4.2747,-18.3745 0.4334,-12.7085 9.0496,-25.8607 20.7011,-33.7498 43.081,-29.1694 92.4755,-58.8751 104.9627,-78.9747 8.7409,20.2221 14.7331,40.2154 18.6744,60.0378 -30.8721,17.0479 -62.9039,33.0523 -95.7759,48.3004 33.5109,-6.9046 66.6386,-14.345 99.1502,-22.6494 1.6736,20.8673 0.5511,40.3322 -4.5754,57.9986 -32.4629,0.5734 -64.9255,0.5536 -97.3879,-0.3739 l 92.2127,19.5536 c -8.5019,19.2325 -18.5108,36.3578 -31.0133,49.9899 -22.1394,-10.1744 -44.2434,-20.6997 -66.2819,-31.8745 18.3569,12.4444 39.052,25.3565 60.4128,38.4012 -13.6942,12.5564 -28.355,24.147 -45.4507,33.3023 l -31.8753,-36.7515 29.156,38.0254 c -6.3453,3.0725 -14.9403,4.8878 -24.8065,6.9744 -17.2939,3.6578 -33.8998,14.0711 -45.0012,25.3505 -4.0291,4.0935 -5.6945,8.8296 -5.5499,14.1001 0.2387,8.7114 2.5095,17.9688 5.5771,26.6989 l 26.4841,75.3753 -23.3248,13.9875 c -5.9125,-21.8769 -11.825,-42.5863 -17.7376,-62.6627 3.5816,22.3966 6.7182,44.7038 9.3,66.9002 z M 286.1861,382.2259 c -0.1596,-0.724 -0.9967,-1.0967 -1.8377,-1.0967 -0.826,0 -1.5712,-0.0613 -2.1002,-0.675 -0.6403,-0.7435 -1.2784,-1.3867 -2.175,-1.4626 -1.8082,-0.1531 -2.7629,0.5357 -2.7374,2.4001 0.0343,2.5163 2.3493,2.9803 4.7251,2.9999 1.7061,0.0141 3.3068,-0.4916 4.1252,-2.1657 z m 22.9975,0 c 0.1596,-0.724 0.9967,-1.0967 1.8377,-1.0967 0.826,0 1.5712,-0.0613 2.1002,-0.675 0.6403,-0.7435 1.2784,-1.3867 2.175,-1.4626 1.8082,-0.1531 2.7629,0.5357 2.7374,2.4001 -0.0343,2.5163 -2.3493,2.9803 -4.725,2.9999 -1.7062,0.0141 -3.3069,-0.4916 -4.1253,-2.1657 z"
       style="fill:none"
       id="path8" />
    <path
       d="m 297.7169,89.28 -0.002,595.7722"
       style="fill:none"
       id="path9" />
    <path
       d="m 256.9776,335.2218 c 2.725,0.002 5.4502,-0.2024 8.1752,-0.7501 v 16.9501 h -4.9502 v -12.1501 l -3.1643,-0.007 z"
       style="fill:#ffffff;fill-rule:evenodd"
       id="path10" />
    <path
       d="m 281.1538,339.0282 h 6.6991 c 0.4677,0 0.8504,0.3826 0.8504,0.8504 v 0.8492 c 0,0.4677 -0.3827,0.8504 -0.8504,0.8504 h -6.6991 c -0.4678,0 -0.8504,-0.3827 -0.8504,-0.8504 v -0.8492 c 0,-0.4678 0.3826,-0.8504 0.8504,-0.8504 z m -2.399,-4.3501 h 11.7221 c 1.8709,0 3.4016,1.5307 3.4016,3.4016 v 4.447 c 0,1.8697 -0.7478,4.6012 -2.2765,6.2512 -1.6645,1.7972 -5.4414,3.0671 -12.0311,2.9291 l -3.1025,-4.2971 c 4.5813,0.1369 10.7679,0.4176 10.7351,-1.4816 h -8.4487 c -1.8709,0 -3.4016,-1.5308 -3.4016,-3.4016 v -4.447 c 0,-1.8709 1.5307,-3.4016 3.4016,-3.4016 z"
       style="fill:#ffffff;fill-rule:evenodd"
       id="path11" />
    <path
       d="m 304.9648,339.0282 h 6.6991 c 0.4677,0 0.8504,0.3826 0.8504,0.8504 v 0.8492 c 0,0.4677 -0.3827,0.8504 -0.8504,0.8504 h -6.6991 c -0.4677,0 -0.8504,-0.3827 -0.8504,-0.8504 v -0.8492 c 0,-0.4678 0.3827,-0.8504 0.8504,-0.8504 z m -2.399,-4.3501 h 11.7221 c 1.8709,0 3.4016,1.5307 3.4016,3.4016 v 4.447 c 0,1.8697 -0.7478,4.6012 -2.2765,6.2512 -1.6645,1.7972 -5.4414,3.0671 -12.0311,2.9291 l -3.1025,-4.2971 c 4.5814,0.1369 10.768,0.4176 10.7351,-1.4816 h -8.4487 c -1.8708,0 -3.4015,-1.5308 -3.4015,-3.4016 v -4.447 c 0,-1.8709 1.5307,-3.4016 3.4015,-3.4016 z"
       style="fill:#ffffff;fill-rule:evenodd"
       id="path12" />
    <path
       d="m 327.1096,338.8048 h 7.5662 c 0.3119,0 0.567,0.2551 0.567,0.5669 v 6.6663 c 0,0.3118 -0.2551,0.5669 -0.567,0.5669 h -7.5662 c -0.3118,0 -0.5669,-0.2551 -0.5669,-0.5669 v -6.6663 c 0,-0.3118 0.2551,-0.5669 0.5669,-0.5669 z m -2.6237,-4.2001 h 13.039 c 1.715,0 3.1182,1.4031 3.1182,3.1181 v 10.5642 c 0,1.7149 -1.4032,3.1181 -3.1182,3.1181 h -13.039 c -1.715,0 -3.1182,-1.4032 -3.1182,-3.1181 v -10.5642 c 0,-1.715 1.4032,-3.1181 3.1182,-3.1181 z"
       style="fill:#ffffff;fill-rule:evenodd"
       id="path13" />
    <path
       d="m 445.9765,456.4295 c -13.6942,12.5564 -28.355,24.147 -45.4507,33.3023 l -31.8753,-36.7515 29.156,38.0254 c -6.3453,3.0725 -14.9403,4.8878 -24.8065,6.9744 -17.2939,3.6578 -33.8998,14.0711 -45.0012,25.3505 -4.0291,4.0935 -5.6945,8.8296 -5.5499,14.1001 0.2387,8.7114 2.5095,17.9688 5.5771,26.6989 l 26.4841,75.3753 -23.3248,13.9875 c -5.9125,-21.8769 -11.825,-42.5863 -17.7376,-62.6627 3.5816,22.3966 6.7182,44.7038 9.3,66.9002 l -25.0328,14.4306 v 12.8917 C 435.797,619.0903 566.7647,508.6029 566.7327,310.3693 566.7267,273.3106 563.6259,235.3697 550.9349,194.3053 459.7359,192.6609 368.041,142.4412 297.7169,89.28 l -9e-4,286.2156 c 1.2717,-1.3813 2.7774,-2.2765 4.5817,-3.3222 l 0.011,-4.0802 17.8764,2.5988 c 2.2414,0.3254 3.0552,1.9219 4.0879,3.3378 l 2.3241,3.1873 2.7751,1.3501 6.7825,-0.0144 c 0.79,-0.002 1.5125,0.3577 2.1798,1.1389 3.0767,3.6012 3.9209,6.8332 3.7882,10.8754 -2.4329,-2.3525 -5.2557,-3.4503 -8.2125,-3.3749 -4.447,0.1134 -8.6003,2.2059 -11.4477,6.6092 6.5489,-0.5584 11.3355,1.7485 13.0221,6.3284 -12.7134,-1.87 -19.4222,4.6715 -22.3878,16.3137 -0.2653,1.0417 -0.0516,1.8674 0.4502,2.4749 2.0338,2.461 4.2621,3.7457 8.0251,3.9002 3.6805,0.1514 7.7301,-0.8167 11.8497,-4.4992 11.3187,-10.1168 18.2336,-22.1558 18.2253,-36.8248 -0.002,-4.6163 -0.6531,-9.057 -2.4754,-13.3498 -2.4052,-5.6653 -4.5168,-11.2794 -4.2747,-18.3745 0.4334,-12.7085 9.0496,-25.8607 20.7011,-33.7498 43.081,-29.1694 92.4755,-58.8751 104.9627,-78.9747 8.7409,20.2221 14.7331,40.2154 18.6744,60.0378 -30.8721,17.0479 -62.9039,33.0523 -95.7759,48.3004 33.5109,-6.9046 66.6386,-14.345 99.1502,-22.6494 1.6736,20.8673 0.5511,40.3322 -4.5754,57.9986 -32.4629,0.5734 -64.9255,0.5536 -97.3879,-0.3739 l 92.2127,19.5536 c -8.5019,19.2325 -18.5108,36.3578 -31.0133,49.9899 -22.1394,-10.1744 -44.2434,-20.6997 -66.2819,-31.8745 18.3569,12.4444 39.052,25.3565 60.4128,38.4012 z M 341.7664,203.0655 c -3.1062,2.7252 -11.4188,2.2102 -17.7647,1.7561 l -23.2815,-1.6657 2.4177,-33.4471 22.9067,1.6659 c 6.3465,0.4612 14.4295,1.2918 16.8058,3.5116 2.3706,2.2141 3.2122,6.2986 2.8672,11.3108 l -0.4739,6.8811 c -0.345,5.0125 -1.0366,7.846 -3.4773,9.9873 z m 34.7548,9.8195 c -9.9686,-2.8641 -14.9596,-3.6119 -13.3356,-13.5366 l 0.3441,-2.103 9.7279,2.8743 -0.0876,0.3314 c -0.8387,3.1737 2.405,4.1865 4.8,4.8699 l 9.8583,2.8148 c 3.8863,1.1095 4.5606,1.5976 5.5332,-2.069 0.6083,-2.2929 -2.3601,-3.198 -4.015,-3.6861 l -13.098,-3.8622 c -7.9586,-2.3468 -11.3312,-3.8957 -9.2506,-11.7301 l 0.54,-2.0333 c 2.5336,-9.5397 9.8889,-7.0395 18.1222,-4.8739 l 9.191,2.4177 c 4.3486,1.1435 7.4877,2.7003 9.43,4.6321 1.9489,1.9383 2.2136,4.8586 1.5483,7.3655 l -0.5978,2.2519 -10.1424,-2.6927 0.0941,-0.3537 c 0.2625,-0.9868 0.1361,-1.7569 -0.371,-2.2998 -0.5134,-0.5493 -2.6311,-1.2534 -4.2097,-1.7305 l -8.7265,-2.6365 c -1.6311,-0.493 -4.1814,-1.0871 -4.9127,1.3861 -0.7231,2.4458 0.7815,2.9047 4.0597,4.0762 l 12.098,3.4745 c 9.423,2.7059 12.2278,5.5477 10.3652,11.6869 l -1.1282,3.7182 c -2.0534,6.7686 -7.8389,6.8789 -15.9973,4.5349 z m 55.906,20.7244 -7.8608,-18.3291 -4.6675,-2.4684 -5.5023,11.7139 -9.6738,-4.3061 14.451,-30.6128 9.5528,4.6417 -5.3275,10.7782 5.4278,2.3216 16.5855,-5.8709 15.8865,6.687 -25.8554,7.3462 12.1264,24.6479 z M 340.6431,348.287 c 0,1.7149 -1.4032,3.1181 -3.1182,3.1181 h -13.039 c -1.715,0 -3.1182,-1.4032 -3.1182,-3.1181 v -10.5642 c 0,-1.715 1.4032,-3.1181 3.1182,-3.1181 h 13.039 c 1.715,0 3.1182,1.4031 3.1182,3.1181 z m -22.9536,-5.7603 c 0,1.8697 -0.7478,4.6012 -2.2765,6.2512 -1.6645,1.7972 -5.4414,3.0671 -12.0311,2.9291 l -3.1025,-4.2971 c 4.5814,0.1369 10.768,0.4176 10.7351,-1.4816 h -8.4487 c -1.8708,0 -3.4015,-1.5308 -3.4015,-3.4016 v -4.447 c 0,-1.8709 1.5307,-3.4016 3.4015,-3.4016 h 11.7221 c 1.8709,0 3.4016,1.5307 3.4016,3.4016 z"
       style="fill:#3f9e00;fill-rule:evenodd"
       id="path14" />
    <path
       d="m 304.9648,341.5782 h 6.6991 c 0.4677,0 0.8504,-0.3827 0.8504,-0.8504 v -0.8492 c 0,-0.4678 -0.3827,-0.8504 -0.8504,-0.8504 h -6.6991 c -0.4677,0 -0.8504,0.3826 -0.8504,0.8504 v 0.8492 c 0,0.4677 0.3827,0.8504 0.8504,0.8504 z"
       style="fill:#3f9e00;fill-rule:evenodd"
       id="path15" />
    <path
       d="m 326.5427,339.3717 v 6.6663 c 0,0.3118 0.2551,0.5669 0.5669,0.5669 h 7.5662 c 0.3119,0 0.567,-0.2551 0.567,-0.5669 v -6.6663 c 0,-0.3118 -0.2551,-0.5669 -0.567,-0.5669 h -7.5662 c -0.3118,0 -0.5669,0.2551 -0.5669,0.5669 z"
       style="fill:#3f9e00;fill-rule:evenodd"
       id="path16" />
    <path
       d="m 318.0339,381.3917 c 0.0255,-1.8644 -0.9292,-2.5532 -2.7374,-2.4001 -0.8966,0.0759 -1.5347,0.7191 -2.175,1.4626 -0.529,0.6137 -1.2742,0.675 -2.1002,0.675 -0.841,0 -1.6781,0.3727 -1.8377,1.0967 0.8184,1.6741 2.4191,2.1798 4.1253,2.1657 2.3757,-0.0196 4.6907,-0.4836 4.725,-2.9999 z"
       style="fill:#3f9e00;fill-rule:evenodd"
       id="path17" />
    <path
       d="m 106.1345,297.0836 c 3.9413,-19.8224 9.9335,-39.8157 18.6744,-60.0378 12.4872,20.0996 61.8817,49.8053 104.9627,78.9747 11.6515,7.8891 20.2677,21.0413 20.7011,33.7498 0.2421,7.0951 -1.8695,12.7092 -4.2747,18.3745 -1.8223,4.2928 -2.4729,8.7335 -2.4754,13.3498 -0.008,14.669 6.9066,26.708 18.2253,36.8248 4.1196,3.6825 8.1692,4.6506 11.8497,4.4992 3.763,-0.1545 5.9913,-1.4392 8.0251,-3.9002 0.5018,-0.6075 0.7155,-1.4332 0.4502,-2.4749 -2.9656,-11.6422 -9.6744,-18.1837 -22.3878,-16.3137 1.6866,-4.5799 6.4732,-6.8868 13.0221,-6.3284 -2.8474,-4.4033 -7.0007,-6.4958 -11.4477,-6.6092 -2.9568,-0.0754 -5.7796,1.0224 -8.2125,3.3749 -0.1327,-4.0422 0.7115,-7.2742 3.7882,-10.8754 0.6673,-0.7812 1.3898,-1.1406 2.1798,-1.1389 l 6.7825,0.0144 2.7751,-1.3501 2.3241,-3.1873 c 1.0327,-1.4159 1.8465,-3.0124 4.0879,-3.3378 l 17.8764,-2.5988 0.011,4.0802 c 1.8043,1.0457 3.3724,1.9409 4.644,3.3222 L 297.7169,89.28 C 227.3927,142.4412 135.0544,191.9673 43.8554,193.6117 31.1644,234.6761 28.326,273.2732 28.3201,310.3316 28.2883,508.5652 159.6328,619.0903 297.7149,685.0522 l -0.003,-12.8897 -25.0895,-14.4326 c 2.5818,-22.1964 5.7184,-44.5036 9.3,-66.9002 -5.9126,20.0764 -11.8251,40.7858 -17.7376,62.6627 L 240.86,639.5049 267.3441,564.1296 c 3.0676,-8.7301 5.3384,-17.9875 5.5771,-26.6989 0.1446,-5.2705 -1.5208,-10.0066 -5.5499,-14.1001 -11.1014,-11.2794 -27.7073,-21.6927 -45.0012,-25.3505 -9.8662,-2.0866 -18.4612,-3.9019 -24.8065,-6.9744 l 29.156,-38.0254 -31.8753,36.7515 c -17.0957,-9.1553 -31.7565,-20.7459 -45.4507,-33.3023 21.3608,-13.0447 42.0559,-25.9568 60.4128,-38.4012 -22.0385,11.1748 -44.1425,21.7001 -66.2819,31.8745 -12.5025,-13.6321 -22.5114,-30.7574 -31.0133,-49.9899 l 92.2127,-19.5536 c -32.4624,0.9275 -64.925,0.9473 -97.3879,0.3739 -5.1265,-17.6664 -6.249,-37.1313 -4.5754,-57.9986 32.5116,8.3044 65.6393,15.7448 99.1502,22.6494 -32.872,-15.2481 -64.9038,-31.2525 -95.7759,-48.3004 z m 44.1862,-51.8785 0.4887,-38.2405 14.7438,-7.4866 30.8506,21.5748 -11.6796,6.074 -4.8784,-3.7939 -18.5151,9.5508 0.0358,6.7215 z m 103.0002,-38.706 -9.9983,2.3627 -5.8023,-24.1092 -1.5222,0.447 -5.4632,26.824 -8.7794,2.4344 -18.0284,-21.3994 -1.5528,0.4689 6.5211,23.7127 -10.0057,2.8372 -8.4254,-32.0035 18.1216,-4.9909 14.938,18.6485 3.3675,-23.2999 18.2741,-4.8733 z m 5.448,-0.4581 -2.8622,-33.7436 36.7472,-2.6526 0.5236,7.683 -26.4722,2.2218 0.3608,5.0916 25.1224,-2.0044 0.5485,6.8627 -24.9279,2.1943 0.5142,5.3316 26.841,-2.3385 0.6318,8.3571 z m 16.5843,132.0387 c 0,-1.8709 1.5307,-3.4016 3.4016,-3.4016 h 11.7221 c 1.8709,0 3.4016,1.5307 3.4016,3.4016 v 4.447 c 0,1.8697 -0.7478,4.6012 -2.2765,6.2512 -1.6645,1.7972 -5.4414,3.0671 -12.0311,2.9291 l -3.1025,-4.2971 c 4.5813,0.1369 10.7679,0.4176 10.7351,-1.4816 h -8.4487 c -1.8709,0 -3.4016,-1.5308 -3.4016,-3.4016 z m -18.3756,-2.8579 c 2.725,0.002 5.4502,-0.2024 8.1752,-0.7501 v 16.9501 h -4.9502 v -12.1501 l -3.1643,-0.007 z"
       style="fill:#246c00;fill-rule:evenodd"
       id="path18" />
    <path
       d="m 287.8529,339.0282 h -6.6991 c -0.4678,0 -0.8504,0.3826 -0.8504,0.8504 v 0.8492 c 0,0.4677 0.3826,0.8504 0.8504,0.8504 h 6.6991 c 0.4677,0 0.8504,-0.3827 0.8504,-0.8504 v -0.8492 c 0,-0.4678 -0.3827,-0.8504 -0.8504,-0.8504 z"
       style="fill:#246c00;fill-rule:evenodd"
       id="path19" />
    <path
       d="m 282.2482,380.4542 c -0.6403,-0.7435 -1.2784,-1.3867 -2.175,-1.4626 -1.8082,-0.1531 -2.7629,0.5357 -2.7374,2.4001 0.0343,2.5163 2.3493,2.9803 4.7251,2.9999 1.7061,0.0141 3.3068,-0.4916 4.1252,-2.1657 -0.1596,-0.724 -0.9967,-1.0967 -1.8377,-1.0967 -0.826,0 -1.5712,-0.0613 -2.1002,-0.675 z"
       style="fill:#246c00;fill-rule:evenodd"
       id="path20" />
    <path
       d="m 243.7226,381.4946 c 0.002,-4.6163 0.6531,-9.057 2.4754,-13.3498 2.4052,-5.6653 4.5168,-11.2794 4.2747,-18.3745 -0.4334,-12.7085 -9.0496,-25.8607 -20.7011,-33.7498 -43.081,-29.1694 -92.4755,-58.8751 -104.9627,-78.9747 -8.7409,20.2221 -14.7331,40.2154 -18.6744,60.0378 30.8721,17.0479 62.9039,33.0523 95.7759,48.3004 -33.5109,-6.9046 -66.6386,-14.345 -99.1502,-22.6494 -1.6736,20.8673 -0.5511,40.3322 4.5754,57.9986 32.4629,0.5734 64.9255,0.5536 97.3879,-0.3739 l -92.2127,19.5536 c 8.5019,19.2325 18.5108,36.3578 31.0133,49.9899 22.1394,-10.1744 44.2434,-20.6997 66.2819,-31.8745 -18.3569,12.4444 -39.052,25.3565 -60.4128,38.4012 13.6942,12.5564 28.355,24.147 45.4507,33.3023 l 31.8753,-36.7515 -29.156,38.0254 c 6.3453,3.0725 14.9403,4.8878 24.8065,6.9744 17.2939,3.6578 33.8998,14.0711 45.0012,25.3505 4.0291,4.0935 5.6945,8.8296 5.5499,14.1001 -0.2387,8.7114 -2.5095,17.9688 -5.5771,26.6989 l -26.4841,75.3753 23.3248,13.9875 c 5.9125,-21.8769 11.825,-42.5863 17.7376,-62.6627 -3.5816,22.3966 -6.7182,44.7038 -9.3,66.9002 l 25.0929,14.4306 10e-4,-296.6649 c -1.2716,-1.3813 -2.8397,-2.2765 -4.644,-3.3222 l -0.011,-4.0802 -17.8764,2.5988 c -2.2414,0.3254 -3.0552,1.9219 -4.0879,3.3378 l -2.3241,3.1873 -2.7751,1.3501 -6.7825,-0.0144 c -0.79,-0.002 -1.5125,0.3577 -2.1798,1.1389 -3.0767,3.6012 -3.9209,6.8332 -3.7882,10.8754 2.4329,-2.3525 5.2557,-3.4503 8.2125,-3.3749 4.447,0.1134 8.6003,2.2059 11.4477,6.6092 -6.5489,-0.5584 -11.3355,1.7485 -13.0221,6.3284 12.7134,-1.87 19.4222,4.6715 22.3878,16.3137 0.2653,1.0417 0.0516,1.8674 -0.4502,2.4749 -2.0338,2.461 -4.2621,3.7457 -8.0251,3.9002 -3.6805,0.1514 -7.7301,-0.8167 -11.8497,-4.4992 -11.3187,-10.1168 -18.2336,-22.1558 -18.2253,-36.8248 z m 33.6132,-0.1029 c -0.0255,-1.8644 0.9292,-2.5532 2.7374,-2.4001 0.8966,0.0759 1.5347,0.7191 2.175,1.4626 0.529,0.6137 1.2742,0.675 2.1002,0.675 0.841,0 1.6781,0.3727 1.8377,1.0967 -0.8184,1.6741 -2.4191,2.1798 -4.1252,2.1657 -2.3758,-0.0196 -4.6908,-0.4836 -4.7251,-2.9999 z"
       style="fill:#e7e7e7;fill-rule:evenodd"
       id="path21" />
    <path
       d="m 297.716,375.4956 -0.005,296.6669 25.0362,-14.4326 c -2.5818,-22.1964 -5.7184,-44.5036 -9.3,-66.9002 5.9126,20.0764 11.8251,40.7858 17.7376,62.6627 l 23.3248,-13.9875 -26.4841,-75.3753 c -3.0676,-8.7301 -5.3384,-17.9875 -5.5771,-26.6989 -0.1446,-5.2705 1.5208,-10.0066 5.5499,-14.1001 11.1014,-11.2794 27.7073,-21.6927 45.0012,-25.3505 9.8662,-2.0866 18.4612,-3.9019 24.8065,-6.9744 l -29.156,-38.0254 31.8753,36.7515 c 17.0957,-9.1553 31.7565,-20.7459 45.4507,-33.3023 -21.3608,-13.0447 -42.0559,-25.9568 -60.4128,-38.4012 22.0385,11.1748 44.1425,21.7001 66.2819,31.8745 12.5025,-13.6321 22.5114,-30.7574 31.0133,-49.9899 l -92.2127,-19.5536 c 32.4624,0.9275 64.925,0.9473 97.3879,0.3739 5.1265,-17.6664 6.249,-37.1313 4.5754,-57.9986 -32.5116,8.3044 -65.6393,15.7448 -99.1502,22.6494 32.872,-15.2481 64.9038,-31.2525 95.7759,-48.3004 -3.9413,-19.8224 -9.9335,-39.8157 -18.6744,-60.0378 -12.4872,20.0996 -61.8817,49.8053 -104.9627,78.9747 -11.6515,7.8891 -20.2677,21.0413 -20.7011,33.7498 -0.2421,7.0951 1.8695,12.7092 4.2747,18.3745 1.8223,4.2928 2.4729,8.7335 2.4754,13.3498 0.008,14.669 -6.9066,26.708 -18.2253,36.8248 -4.1196,3.6825 -8.1692,4.6506 -11.8497,4.4992 -3.763,-0.1545 -5.9913,-1.4392 -8.0251,-3.9002 -0.5018,-0.6075 -0.7155,-1.4332 -0.4502,-2.4749 2.9656,-11.6422 9.6744,-18.1837 22.3878,-16.3137 -1.6866,-4.5799 -6.4732,-6.8868 -13.0221,-6.3284 2.8474,-4.4033 7.0007,-6.4958 11.4477,-6.6092 2.9568,-0.0754 5.7796,1.0224 8.2125,3.3749 0.1327,-4.0422 -0.7115,-7.2742 -3.7882,-10.8754 -0.6673,-0.7812 -1.3898,-1.1406 -2.1798,-1.1389 l -6.7825,0.0144 -2.7751,-1.3501 -2.3241,-3.1873 c -1.0327,-1.4159 -1.8465,-3.0124 -4.0879,-3.3378 l -17.8764,-2.5988 -0.011,4.0802 c -1.8043,1.0457 -3.31,1.9409 -4.5817,3.3222 z m 17.5805,3.496 c 1.8082,-0.1531 2.7629,0.5357 2.7374,2.4001 -0.0343,2.5163 -2.3493,2.9803 -4.725,2.9999 -1.7062,0.0141 -3.3069,-0.4916 -4.1253,-2.1657 0.1596,-0.724 0.9967,-1.0967 1.8377,-1.0967 0.826,0 1.5712,-0.0613 2.1002,-0.675 0.6403,-0.7435 1.2784,-1.3867 2.175,-1.4626 z"
       style="fill:#ffffff;fill-rule:evenodd"
       id="path22" />
    <path
       d="m 160.9716,224.7766 12.6343,-6.7076 -10.9344,-8.2689 -1.6531,0.8365 z"
       style="fill:#246c00;fill-rule:evenodd"
       id="path23" />
    <path
       d="m 312.446,179.028 -0.9921,16.2139 16.3593,1.0576 c 2.7586,0.178 4.5932,0.1582 5.5074,-0.5281 0.9105,-0.6831 1.5591,-1.1682 1.7498,-4.0683 l 0.3671,-5.5825 c 0.1908,-2.9004 -0.1797,-3.9099 -1.002,-4.7228 -0.8263,-0.8167 -2.6357,-1.0832 -5.372,-1.2651 z"
       style="fill:#3f9e00;fill-rule:evenodd"
       id="path24" />
    <path
       d="M 299.7252,49.1856 V 86.741 c 39.7046,28.8782 80.9881,54.4388 122.8437,73.0446 41.741,18.5547 84.4112,30.196 126.3007,31.3203 l -8.5059,-32.3816 c -2.2887,-0.2228 -4.5567,-0.5562 -6.8114,-0.953 -2.1963,-0.387 -4.3897,-0.8354 -6.5815,-1.3003 l 0.003,16.1062 -0.3779,-0.0272 c -4.7676,-0.3405 -9.6177,-0.8651 -14.5346,-1.5401 -4.9156,-0.6749 -9.889,-1.4995 -14.9057,-2.4398 l -0.2895,-0.0541 v -18.0125 c -4.2477,-0.9921 -8.5016,-2.0687 -12.7601,-3.2437 -4.1922,-1.1565 -8.3721,-2.4049 -12.5365,-3.7567 l -0.023,18.3268 c -10.1707,-3.753 -20.3417,-7.5084 -30.5178,-11.2464 l -0.0371,-16.9838 c -4.3135,-1.4964 -8.5998,-3.1244 -12.8676,-4.8348 -4.1992,-1.6829 -8.3701,-3.4404 -12.5271,-5.2285 l 0.0374,15.8899 -0.5077,-0.2466 c -5.2138,-2.5311 -10.4967,-5.2339 -15.7096,-8.0802 -4.7917,-2.6161 -9.5162,-5.3489 -14.0624,-8.1751 l -0.1675,-0.104 V 109.266 c -4.4161,-2.2312 -8.7877,-4.5848 -13.1176,-7.0478 -4.2089,-2.3942 -8.377,-4.8918 -12.5074,-7.4812 l 0.007,13.4056 C 349.4568,101.2425 339.3513,94.3294 329.2265,87.4488 l 0.004,-12.7533 c -5.1069,-3.5249 -10.1492,-7.5714 -15.1373,-11.9577 -4.8268,-4.2449 -9.6146,-8.8192 -14.368,-13.5522 z M 299.0166,86.921 V 47.4797 l 0.6035,0.603 c 4.9331,4.9289 9.9093,9.6984 14.9408,14.1233 5.0258,4.4192 10.0979,8.4872 15.2232,12.0132 l 0.1522,0.1049 -0.004,12.7503 28.9296,19.7305 -0.007,-13.3469 0.5417,0.3407 c 4.3007,2.7065 8.6397,5.3127 13.0209,7.8049 4.3807,2.492 8.807,4.8728 13.2826,7.1297 l 0.195,0.0984 v 13.5958 c 4.4966,2.7904 9.1508,5.4814 13.8592,8.0518 5.0261,2.7442 10.1259,5.3586 15.171,7.8168 l -0.0374,-15.8352 0.4941,0.2126 c 4.3389,1.8689 8.6754,3.7007 13.0045,5.4355 4.3489,1.743 8.7052,3.3964 13.0716,4.9059 l 0.2376,0.0822 0.0374,16.9917 29.1084,10.7272 0.0227,-18.2866 0.4618,0.1505 c 4.3239,1.4119 8.6468,2.7068 12.9676,3.8991 4.3175,1.1911 8.6548,2.2861 13.0065,3.2989 l 0.2741,0.0641 v 17.9872 c 4.9159,0.9176 9.7812,1.7218 14.5806,2.3806 4.763,0.6536 9.4714,1.1667 14.1125,1.5071 l -0.003,-16.2195 0.4266,0.0907 c 2.323,0.4949 4.6489,0.9748 6.9829,1.3859 2.3355,0.411 4.6709,0.7528 7.0036,0.9714 l 0.2505,0.0235 c 2.8338,11.2555 6.0282,22.5102 8.8549,33.7677 l -0.4646,-0.0116 C 507.1779,190.7722 464.2594,179.0898 422.2837,160.4307 380.3193,141.7765 338.944,116.1522 299.1634,87.2076 l -0.1468,-0.1066 z"
       style="fill:#781824;fill-rule:evenodd"
       id="path25" />
    <path
       d="M 295.4735,49.1856 V 86.741 c -39.7046,28.8782 -80.9881,54.4388 -122.8436,73.0446 -41.741,18.5547 -85.3308,30.196 -127.2203,31.3203 l 8.1499,-32.3816 c 2.2887,-0.2228 5.8323,-0.5562 8.087,-0.953 2.1962,-0.387 3.8228,-0.8354 6.0145,-1.3003 l -0.0028,16.1062 0.3778,-0.0272 c 4.7676,-0.3405 10.1846,-0.8651 15.1016,-1.5401 4.9156,-0.6749 9.0386,-1.4995 14.0553,-2.4398 l 0.2894,-0.0541 v -18.0125 c 4.2477,-0.9921 9.3521,-2.0687 13.6106,-3.2437 4.1921,-1.1565 7.8052,-2.4049 11.9696,-3.7567 l 0.0229,18.3268 c 10.1707,-3.753 19.7748,-7.5084 29.9509,-11.2464 l 0.0371,-16.9838 c 4.3135,-1.4964 9.7336,-3.1244 14.0015,-4.8348 4.1992,-1.6829 7.8032,-3.4404 11.9602,-5.2285 l -0.0374,15.323 0.5077,-0.2466 c 5.2137,-2.5311 10.7257,-5.2872 15.9386,-8.1335 4.7917,-2.6161 9.0037,-5.0122 13.5499,-7.8384 l 0.1675,-0.104 V 109.266 c 4.4161,-2.2312 9.6381,-4.5848 13.968,-7.0478 4.2089,-2.3942 7.81,-4.8918 11.9404,-7.4812 l -0.006,13.4056 c 10.1117,-6.9001 19.9338,-13.8132 30.0586,-20.6938 l -0.004,-12.7533 c 5.1069,-3.5249 10.9995,-7.5714 15.9877,-11.9577 4.8268,-4.2449 9.6145,-8.8192 14.3679,-13.5522 z m 0.7087,37.7354 V 47.4797 l -0.6035,0.603 c -4.9331,4.9289 -9.9093,9.6984 -14.9408,14.1233 -5.0259,4.4192 -10.9483,8.4872 -16.0736,12.0132 l -0.1522,0.1049 0.004,12.7503 -28.646,19.7305 0.007,-13.3469 -0.5417,0.3407 c -4.3008,2.7065 -8.0728,5.3127 -12.454,7.8049 -4.3807,2.492 -9.6574,4.8728 -14.133,7.1297 l -0.195,0.0984 v 13.3123 c -4.4966,2.7905 -8.6383,5.1446 -13.3467,7.7151 -5.0261,2.7442 -10.355,5.4119 -15.4001,7.8701 l 0.0375,-15.2683 -0.4941,0.2126 c -4.339,1.8689 -8.1085,3.7007 -12.4376,5.4355 -4.3489,1.743 -9.839,3.3964 -14.2055,4.9059 l -0.2376,0.0822 -0.0374,16.9917 -28.5415,10.7272 -0.0227,-18.2866 -0.4617,0.1505 c -4.324,1.4119 -8.0799,2.7068 -12.4007,3.8991 -4.3175,1.1911 -9.5052,2.2861 -13.8569,3.2989 l -0.2741,0.0641 v 17.9872 c -4.9159,0.9176 -8.9309,1.7218 -13.7302,2.3806 -4.7631,0.6536 -10.0383,1.1667 -14.6795,1.5071 l 0.0031,-16.2195 -0.4266,0.0907 c -2.323,0.4949 -4.0819,0.9748 -6.4159,1.3859 -2.3355,0.411 -5.9466,0.7528 -8.2792,0.9714 l -0.2506,0.0235 c -2.8338,11.2555 -5.6721,22.5102 -8.4988,33.7677 l 0.4646,-0.0116 c 42.1407,-1.0528 85.9788,-12.7352 127.9545,-31.3943 41.9644,-18.6542 83.3397,-44.2785 123.1203,-73.2231 l 0.1468,-0.1066 z"
       style="fill:#781824;fill-rule:evenodd"
       id="path26" />
    <path
       d="M 295.4735,86.741 V 49.1856 c -4.7534,4.733 -9.5411,9.3073 -14.3679,13.5522 -4.9882,4.3863 -10.8808,8.4328 -15.9877,11.9577 l 0.004,12.7533 c -10.1248,6.8806 -19.9469,13.7937 -30.0586,20.6938 l 0.006,-13.4056 c -4.1304,2.5894 -7.7315,5.087 -11.9404,7.4812 -4.3299,2.463 -9.5519,4.8166 -13.968,7.0478 v 13.2709 l -0.1675,0.104 c -4.5462,2.8262 -8.7582,5.2223 -13.5499,7.8384 -5.2129,2.8463 -10.7249,5.6024 -15.9386,8.1335 l -0.5077,0.2466 0.0374,-15.323 c -4.157,1.7881 -7.761,3.5456 -11.9602,5.2285 -4.2679,1.7104 -9.688,3.3384 -14.0015,4.8348 l -0.0371,16.9838 c -10.1761,3.738 -19.7802,7.4934 -29.9509,11.2464 l -0.0229,-18.3268 c -4.1644,1.3518 -7.7775,2.6002 -11.9696,3.7567 -4.2585,1.175 -9.3629,2.2516 -13.6106,3.2437 v 18.0125 l -0.2894,0.0541 c -5.0167,0.9403 -9.1397,1.7649 -14.0553,2.4398 -4.917,0.675 -10.334,1.1996 -15.1016,1.5401 l -0.3778,0.0272 0.0028,-16.1062 c -2.1917,0.4649 -3.8183,0.9133 -6.0145,1.3003 -2.2547,0.3968 -5.7983,0.7302 -8.087,0.953 l -8.1499,32.3816 c 41.8895,-1.1243 85.4793,-12.7656 127.2203,-31.3203 41.8555,-18.6058 83.139,-44.1664 122.8436,-73.0446 z"
       style="fill:#bd0003;fill-rule:evenodd"
       id="path27" />
    <path
       d="M 299.7252,49.1856 V 86.741 c 39.7046,28.8782 80.9881,54.4388 122.8437,73.0446 41.741,18.5547 84.4112,30.196 126.3007,31.3203 l -8.5059,-32.3816 c -2.2887,-0.2228 -4.5567,-0.5562 -6.8114,-0.953 -2.1963,-0.387 -4.3897,-0.8354 -6.5815,-1.3003 l 0.003,16.1062 -0.3779,-0.0272 c -4.7676,-0.3405 -9.6177,-0.8651 -14.5346,-1.5401 -4.9156,-0.6749 -9.889,-1.4995 -14.9057,-2.4398 l -0.2895,-0.0541 v -18.0125 c -4.2477,-0.9921 -8.5016,-2.0687 -12.7601,-3.2437 -4.1922,-1.1565 -8.3721,-2.4049 -12.5365,-3.7567 l -0.023,18.3268 c -10.1707,-3.753 -20.3417,-7.5084 -30.5178,-11.2464 l -0.0371,-16.9838 c -4.3135,-1.4964 -8.5998,-3.1244 -12.8676,-4.8348 -4.1992,-1.6829 -8.3701,-3.4404 -12.5271,-5.2285 l 0.0374,15.8899 -0.5077,-0.2466 c -5.2138,-2.5311 -10.4967,-5.2339 -15.7096,-8.0802 -4.7917,-2.6161 -9.5162,-5.3489 -14.0624,-8.1751 l -0.1675,-0.104 V 109.266 c -4.4161,-2.2312 -8.7877,-4.5848 -13.1176,-7.0478 -4.2089,-2.3942 -8.377,-4.8918 -12.5074,-7.4812 l 0.007,13.4056 C 349.4568,101.2425 339.3513,94.3294 329.2265,87.4488 l 0.004,-12.7533 c -5.1069,-3.5249 -10.1492,-7.5714 -15.1373,-11.9577 -4.8268,-4.2449 -9.6146,-8.8192 -14.368,-13.5522 z"
       style="fill:#ff0011;fill-rule:evenodd"
       id="path28" />
    <path
       d="M 566.6465,319.2072 C 573.2597,548.528 473.5284,699.4899 297.7398,794.4097 159.9364,713.3284 28.0675,610.4024 28.3201,310.3316"
       style="fill:none"
       id="path29" />
    <path
       d="m 64.7731,544.2313 c 53.0679,88.2405 135.121,148.6542 233.1924,193.6913 115.5234,-65.9188 187.5931,-149.574 224.7162,-247.4929"
       style="fill:none"
       id="path30" />
    <path
       d="m 299.7252,86.741 c 39.7046,28.8782 80.9881,54.4388 122.8437,73.0446 41.741,18.5547 84.4112,30.196 126.3007,31.3203 l -8.5059,-32.3816 c -2.2887,-0.2228 -4.5567,-0.5562 -6.8114,-0.953 -2.1963,-0.387 -4.3897,-0.8354 -6.5815,-1.3003 l 0.003,16.1062 -0.3779,-0.0272 c -4.7676,-0.3405 -9.6177,-0.8651 -14.5346,-1.5401 -4.9156,-0.6749 -9.889,-1.4995 -14.9057,-2.4398 l -0.2895,-0.0541 v -18.0125 c -4.2477,-0.9921 -8.5016,-2.0687 -12.7601,-3.2437 -4.1922,-1.1565 -8.3721,-2.4049 -12.5365,-3.7567 l -0.023,18.3268 c -10.1707,-3.753 -20.3417,-7.5084 -30.5178,-11.2464 l -0.0371,-16.9838 c -4.3135,-1.4964 -8.5998,-3.1244 -12.8676,-4.8348 -4.1992,-1.6829 -8.3701,-3.4404 -12.5271,-5.2285 l 0.0374,15.8899 -0.5077,-0.2466 c -5.2138,-2.5311 -10.4967,-5.2339 -15.7096,-8.0802 -4.7917,-2.6161 -9.5162,-5.3489 -14.0624,-8.1751 l -0.1675,-0.104 V 109.266 c -4.4161,-2.2312 -8.7877,-4.5848 -13.1176,-7.0478 -4.2089,-2.3942 -8.377,-4.8918 -12.5074,-7.4812 l 0.007,13.4056 C 349.4568,101.2425 339.3513,94.3294 329.2265,87.4488 l 0.004,-12.7533 c -5.1069,-3.5249 -10.1492,-7.5714 -15.1373,-11.9577 -4.8268,-4.2449 -9.6146,-8.8192 -14.368,-13.5522 z"
       style="fill:#ff0011;fill-rule:evenodd;stroke:#1b1918;stroke-width:0.5669;stroke-linecap:butt;stroke-linejoin:miter;stroke-dasharray:none"
       id="path31" />
    <path
       d="m 297.7149,685.0522 0.0249,109.3575"
       style="fill:none"
       id="path32" />
    <path
       d="m 522.6817,490.4297 c -37.1231,97.9189 -109.1928,181.5741 -224.7162,247.4929 -0.0797,-0.0366 -0.159,-0.0731 -0.2387,-0.1097 l 0.013,56.5968 C 473.5284,699.4899 573.2597,548.528 566.6465,319.2072 565.3324,385.8094 549.0476,442.315 522.6817,490.4297 Z"
       style="fill:#ff0011;fill-rule:evenodd"
       id="path33" />
    <path
       d="M 297.7268,737.8129 C 199.7609,692.7874 117.798,632.4001 64.7731,544.2313 113.3739,674.2551 204.1894,739.366 297.7398,794.4097 Z"
       style="fill:#bd0003;fill-rule:evenodd"
       id="path34" />
    <path
       d="M 522.6817,490.4297 C 472.7662,581.5191 386.7185,642.5351 297.7149,685.0522 l 0.0119,52.7607 c 0.0797,0.0366 0.159,0.0731 0.2387,0.1097 115.5234,-65.9188 187.5931,-149.574 224.7162,-247.4929 z"
       style="fill:#ffffff;fill-rule:evenodd"
       id="path35" />
    <path
       d="M 297.7149,685.0522 C 159.6328,619.0903 28.2883,508.5652 28.3201,310.3316 28.239,406.6937 41.783,482.7251 64.7731,544.2313 117.798,632.4001 199.7609,692.7874 297.7268,737.8129 Z"
       style="fill:#e7e7e7;fill-rule:evenodd"
       id="path36" />
  </g>
</svg>