<svg xmlns="http://www.w3.org/2000/svg" width="1024" height="600"><path d="M0 0v600l1024-300z" fill="#006400"/><path d="M15 20.025v559.95L970.644 300z" fill="#ffde00"/><g style="line-height:125%;-inkscape-font-specification:Georgia;text-align:start"><path d="M187.775 304.63q-.714.041-2.268.566-1.554.484-2.225.968-1.638.968-2.226 1.492-.588.524-2.267 2.743-3.276 4.436-6.047 8.994t-6.929 11.576q-1.553 2.581-2.057 4.154t-.504 4.558v10.93q0 1.453.588 2.542.63 1.048 2.1 1.694.881.322 3.149.806 2.267.444 3.653.484v2.864H144.86v-2.864q1.176-.08 3.527-.282 2.352-.242 3.276-.605 1.511-.605 2.057-1.654.588-1.048.588-2.581V337.1q0-.646-.84-2.34-.798-1.734-1.931-3.831-2.52-4.68-5.585-10.124-3.065-5.445-5.333-9.317-1.386-2.3-2.477-3.47-1.05-1.169-2.436-2.056-1.008-.605-2.435-.928-1.386-.322-2.52-.403v-2.864h25.405v2.864q-4.283.08-6.047.565-1.764.484-1.764 1.37 0 .243.252.848t.714 1.533q.546 1.048 1.302 2.42.756 1.33 1.427 2.581 1.974 3.59 4.032 7.18l5.374 9.276q6.593-10.204 10.036-15.891 3.485-5.728 3.485-6.857 0-.928-.713-1.492-.714-.565-1.89-.888-1.218-.322-2.645-.403-1.428-.121-2.646-.242v-2.864h20.702z" style="-inkscape-font-specification:Georgia" aria-label="Y" font-weight="400" font-size="84.283" font-family="Georgia" letter-spacing="0" word-spacing="0" fill="#006400" stroke-width="3.467"/></g><g style="line-height:125%;-inkscape-font-specification:'Times New Roman';text-align:start"><path d="M305.047 398.194q0 4.477-1.848 7.946-1.806 3.428-5.039 5.687-3.191 2.259-7.012 3.308-3.821 1.048-8.105 1.048h-6.676v17.344q0 1.411.462 2.5.504 1.05 2.015 1.614.756.282 2.646.524 1.931.242 3.527.283v2.863h-25.572v-2.863q1.007-.081 2.897-.283 1.932-.202 2.687-.524 1.26-.525 1.806-1.533.588-1.008.588-2.581v-41.302q0-1.412-.42-2.541-.42-1.13-1.974-1.694-1.595-.525-3.19-.726-1.555-.242-2.688-.323v-2.864h27.21q8.314 0 13.479 3.872 5.207 3.832 5.207 10.245zm-12.766 9.761q1.428-1.936 1.89-3.993.462-2.097.462-3.751 0-2.3-.588-4.679-.546-2.38-1.932-4.154-1.47-1.896-3.863-2.945-2.393-1.048-5.962-1.048h-5.921v25.29h4.283q4.535 0 7.348-1.332 2.856-1.371 4.283-3.388z" style="-inkscape-font-specification:Georgia" font-family="Georgia" aria-label="P" font-weight="400" font-size="84.283" letter-spacing="0" word-spacing="0" fill="#006400" stroke-width="3.467"/></g><g style="line-height:125%;-inkscape-font-specification:'Times New Roman';text-align:start"><path d="M435.181 333.589q-1.008.12-2.73.403-1.679.242-2.729.726-1.26.605-1.805 1.734-.504 1.09-.504 2.582v4.436q0 4.84.042 6.534.084 1.694.168 2.783-5.585 2.42-11.128 3.711-5.542 1.29-10.875 1.29-5.711 0-11.002-2.056-5.29-2.057-9.238-5.849-3.989-3.831-6.34-9.317-2.352-5.485-2.352-12.261 0-6.534 2.226-12.1 2.267-5.607 6.382-9.72 3.99-4.034 9.49-6.253 5.543-2.258 11.841-2.258 5.04 0 8.777 1.17 3.737 1.17 6.592 2.823l1.722-2.743h3.359l.378 20.006h-3.443q-.882-3.308-2.184-6.494-1.302-3.227-3.36-5.768-2.057-2.54-5.038-4.033-2.94-1.533-7.054-1.533-4.493 0-8.02 1.775-3.528 1.734-6.131 5.203-2.562 3.348-3.948 8.349-1.385 5.001-1.385 11.172 0 5.446 1.344 10.286 1.385 4.8 3.989 8.308 2.603 3.59 6.508 5.647 3.905 2.057 8.86 2.057 3.695 0 6.719-1.089 3.065-1.089 4.325-2.299.336-2.097.336-4.235.042-2.138.042-3.63V339.8q0-1.694-.504-2.985-.462-1.33-1.974-1.936-1.385-.605-3.779-.887-2.351-.323-3.695-.403v-2.945h26.118z" style="-inkscape-font-specification:Georgia" font-family="Georgia" aria-label="G" font-weight="400" font-size="84.283" letter-spacing="0" word-spacing="0" fill="#006400" stroke-width="3.467"/></g><path d="M281.596 161.84l-29.473 90.71h-95.379l77.162 56.063-29.472 90.711 77.164-56.062 77.162 56.062-29.475-90.71 77.164-56.063H311.07l-29.474-90.711z" fill="#006400"/><path d="M281.596 181.414L256.518 258.6h-81.159l65.659 47.703-25.079 77.185 65.657-47.703 65.658 47.703-25.08-77.185 65.658-47.703h-81.156l-25.08-77.186z" fill="#dd281f"/></svg>